<svg width="34" height="39" viewBox="0 0 34 39" fill="none" xmlns="http://www.w3.org/2000/svg">
<path d="M18.0342 5.21856V1.75126C18.0342 0.94708 17.1331 0.471857 16.4695 0.926021L9.98635 5.36263C9.41096 5.75639 9.40502 6.6033 9.97481 7.00509L16.4579 11.5767C17.1204 12.0439 18.0342 11.5701 18.0342 10.7595V7.22292C25.4509 7.74495 31.3184 14.0296 31.3184 21.7189C31.3184 29.7508 24.9165 36.2501 17.0342 36.2501C9.15185 36.2501 2.74998 29.7508 2.74998 21.7189C2.74998 21.1667 2.30227 20.719 1.75001 20.719C1.19773 20.719 0.750031 21.1667 0.750031 21.7189C0.750031 30.8425 8.03435 38.25 17.0342 38.25C26.034 38.25 33.3184 30.8425 33.3184 21.7189C33.3184 12.9358 26.5677 5.74331 18.0342 5.21856ZM16.0342 6.18787V8.83077L12.3037 6.20018L16.0342 3.64728V5.43789V5.68789V5.91058V6.18787Z" fill="#D5C183" stroke="#D5C183" stroke-width="0.5"/>
<path d="M15.133 23.72V25H9.38901V23.72H11.661V17.48C11.565 17.608 11.4157 17.7467 11.213 17.896C11.0103 18.0347 10.781 18.168 10.525 18.296C10.2797 18.4133 10.0237 18.5147 9.75701 18.6C9.49034 18.6853 9.25567 18.728 9.05301 18.728V17.384C9.28767 17.384 9.54901 17.32 9.83701 17.192C10.125 17.0533 10.397 16.8987 10.653 16.728C10.9197 16.5467 11.1437 16.376 11.325 16.216C11.517 16.0453 11.629 15.928 11.661 15.864H13.101V23.72H15.133ZM20.0173 19.976C20.5399 19.976 21.0253 20.0667 21.4733 20.248C21.9319 20.4187 22.3266 20.664 22.6573 20.984C22.9879 21.304 23.2493 21.688 23.4413 22.136C23.6333 22.584 23.7293 23.0747 23.7293 23.608C23.7293 24.1733 23.6226 24.6853 23.4093 25.144C23.2066 25.6133 22.9239 26.0133 22.5613 26.344C22.1986 26.6747 21.7719 26.9307 21.2813 27.112C20.7906 27.2933 20.2679 27.384 19.7133 27.384C18.9026 27.384 18.1719 27.192 17.5213 26.808C16.8706 26.424 16.3799 25.912 16.0493 25.272L16.9293 24.504C17.2279 24.9947 17.6226 25.3893 18.1133 25.688C18.6146 25.9867 19.1533 26.136 19.7293 26.136C20.0919 26.136 20.4279 26.072 20.7373 25.944C21.0573 25.8267 21.3293 25.656 21.5533 25.432C21.7879 25.2187 21.9693 24.9573 22.0973 24.648C22.2253 24.3387 22.2893 23.9973 22.2893 23.624C22.2893 23.272 22.2253 22.9467 22.0973 22.648C21.9693 22.3493 21.7933 22.0933 21.5693 21.88C21.3559 21.6667 21.0999 21.5013 20.8013 21.384C20.5026 21.2667 20.1826 21.208 19.8413 21.208C19.3826 21.208 18.9506 21.3093 18.5453 21.512C18.1506 21.7147 17.8253 22.0027 17.5693 22.376H16.3053C16.3159 22.3227 16.3426 22.1893 16.3853 21.976C16.4279 21.752 16.4813 21.4853 16.5453 21.176C16.6093 20.856 16.6786 20.504 16.7533 20.12C16.8279 19.736 16.9026 19.3467 16.9773 18.952C17.1586 18.0347 17.3613 17.0053 17.5853 15.864H23.1053V17.16H18.6253L17.9373 20.776C18.1719 20.5307 18.4653 20.3387 18.8173 20.2C19.1693 20.0507 19.5693 19.976 20.0173 19.976Z" fill="#D5C183"/>
<path d="M15.133 23.72H15.633V23.22H15.133V23.72ZM15.133 25V25.5H15.633V25H15.133ZM9.38901 25H8.88901V25.5H9.38901V25ZM9.38901 23.72V23.22H8.88901V23.72H9.38901ZM11.661 23.72V24.22H12.161V23.72H11.661ZM11.661 17.48H12.161V15.98L11.261 17.18L11.661 17.48ZM11.213 17.896L11.4954 18.3087L11.5026 18.3037L11.5096 18.2985L11.213 17.896ZM10.525 18.296L10.7408 18.7471L10.7486 18.7432L10.525 18.296ZM9.75701 18.6L9.9094 19.0762H9.9094L9.75701 18.6ZM9.05301 18.728H8.55301V19.228H9.05301V18.728ZM9.05301 17.384V16.884H8.55301V17.384H9.05301ZM9.83701 17.192L10.0401 17.6489L10.047 17.6458L10.0539 17.6425L9.83701 17.192ZM10.653 16.728L10.9304 17.144L10.9342 17.1415L10.653 16.728ZM11.325 16.216L11.6558 16.5909L11.6572 16.5897L11.325 16.216ZM11.661 15.864V15.364H11.352L11.2138 15.6404L11.661 15.864ZM13.101 15.864H13.601V15.364H13.101V15.864ZM13.101 23.72H12.601V24.22H13.101V23.72ZM14.633 23.72V25H15.633V23.72H14.633ZM15.133 24.5H9.38901V25.5H15.133V24.5ZM9.88901 25V23.72H8.88901V25H9.88901ZM9.38901 24.22H11.661V23.22H9.38901V24.22ZM12.161 23.72V17.48H11.161V23.72H12.161ZM11.261 17.18C11.2061 17.2533 11.0996 17.3585 10.9164 17.4935L11.5096 18.2985C11.7318 18.1348 11.924 17.9627 12.061 17.78L11.261 17.18ZM10.9307 17.4833C10.7495 17.6073 10.5403 17.7293 10.3014 17.8488L10.7486 18.7432C11.0217 18.6067 11.2711 18.4621 11.4954 18.3087L10.9307 17.4833ZM10.3093 17.8449C10.0851 17.9522 9.85026 18.0452 9.60462 18.1238L9.9094 19.0762C10.1971 18.9842 10.4743 18.8745 10.7407 18.7471L10.3093 17.8449ZM9.60462 18.1238C9.36986 18.1989 9.18844 18.228 9.05301 18.228V19.228C9.32291 19.228 9.61082 19.1718 9.9094 19.0762L9.60462 18.1238ZM9.55301 18.728V17.384H8.55301V18.728H9.55301ZM9.05301 17.884C9.37725 17.884 9.7089 17.7961 10.0401 17.6489L9.63394 16.7351C9.38911 16.8439 9.1981 16.884 9.05301 16.884V17.884ZM10.0539 17.6425C10.362 17.4941 10.6543 17.3281 10.9304 17.144L10.3757 16.312C10.1397 16.4693 9.88799 16.6125 9.6201 16.7415L10.0539 17.6425ZM10.9342 17.1415C11.2128 16.952 11.4546 16.7685 11.6558 16.5909L10.9942 15.8411C10.8328 15.9835 10.6265 16.1414 10.3719 16.3145L10.9342 17.1415ZM11.6572 16.5897C11.7583 16.4999 11.8455 16.4178 11.9147 16.3452C11.9728 16.2844 12.0558 16.1925 12.1082 16.0876L11.2138 15.6404C11.2278 15.6124 11.2384 15.6011 11.2305 15.6111C11.2248 15.6182 11.2127 15.6324 11.1913 15.6548C11.1486 15.6996 11.0838 15.7615 10.9928 15.8423L11.6572 16.5897ZM11.661 16.364H13.101V15.364H11.661V16.364ZM12.601 15.864V23.72H13.601V15.864H12.601ZM13.101 24.22H15.133V23.22H13.101V24.22ZM21.4733 20.248L21.2857 20.7115L21.2922 20.7141L21.2989 20.7166L21.4733 20.248ZM22.6573 20.984L22.3095 21.3433L22.6573 20.984ZM23.4413 22.136L22.9817 22.333V22.333L23.4413 22.136ZM23.4093 25.144L22.9557 24.9331L22.9502 24.9458L23.4093 25.144ZM22.5613 26.344L22.8981 26.7135L22.5613 26.344ZM21.2813 27.112L21.1079 26.643L21.2813 27.112ZM16.0493 25.272L15.7205 24.8953L15.425 25.1531L15.605 25.5015L16.0493 25.272ZM16.9293 24.504L17.3564 24.244L17.0477 23.737L16.6005 24.1273L16.9293 24.504ZM18.1133 25.688L17.8533 26.1151L17.8574 26.1175L18.1133 25.688ZM20.7373 25.944L20.5651 25.4746L20.5555 25.4781L20.5461 25.482L20.7373 25.944ZM21.5533 25.432L21.2169 25.062L21.2081 25.07L21.1997 25.0784L21.5533 25.432ZM22.0973 24.648L21.6353 24.4568L22.0973 24.648ZM22.0973 22.648L21.6377 22.845L22.0973 22.648ZM21.5693 21.88L21.2156 22.2337L21.2244 22.2421L21.5693 21.88ZM18.5453 21.512L18.3216 21.0648L18.3169 21.0672L18.5453 21.512ZM17.5693 22.376V22.876H17.8327L17.9816 22.6588L17.5693 22.376ZM16.3053 22.376L15.815 22.2779L15.6954 22.876H16.3053V22.376ZM16.3853 21.976L16.8756 22.0741L16.8764 22.0696L16.3853 21.976ZM16.5453 21.176L17.0349 21.2773L17.0355 21.2741L16.5453 21.176ZM16.7533 20.12L17.2441 20.2154L16.7533 20.12ZM16.9773 18.952L16.4867 18.855L16.486 18.8591L16.9773 18.952ZM17.5853 15.864V15.364H17.1739L17.0946 15.7677L17.5853 15.864ZM23.1053 15.864H23.6053V15.364H23.1053V15.864ZM23.1053 17.16V17.66H23.6053V17.16H23.1053ZM18.6253 17.16V16.66H18.2114L18.1341 17.0665L18.6253 17.16ZM17.9373 20.776L17.4461 20.6825L17.1301 22.3432L18.2986 21.1216L17.9373 20.776ZM18.8173 20.2L19.0006 20.6654L19.0125 20.6603L18.8173 20.2ZM20.0173 20.476C20.4809 20.476 20.902 20.5562 21.2857 20.7115L21.6609 19.7845C21.1486 19.5772 20.5989 19.476 20.0173 19.476V20.476ZM21.2989 20.7166C21.697 20.8648 22.0316 21.0743 22.3095 21.3433L23.005 20.6247C22.6216 20.2537 22.1668 19.9726 21.6476 19.7794L21.2989 20.7166ZM22.3095 21.3433C22.5897 21.6145 22.8143 21.9423 22.9817 22.333L23.9008 21.939C23.6843 21.4337 23.3861 20.9935 23.005 20.6247L22.3095 21.3433ZM22.9817 22.333C23.1446 22.7131 23.2293 23.136 23.2293 23.608H24.2293C24.2293 23.0134 24.1219 22.4549 23.9008 21.939L22.9817 22.333ZM23.2293 23.608C23.2293 24.1091 23.1351 24.5479 22.9559 24.9331L23.8626 25.3549C24.1101 24.8228 24.2293 24.2376 24.2293 23.608H23.2293ZM22.9502 24.9458C22.7745 25.3528 22.5325 25.6936 22.2244 25.9745L22.8981 26.7135C23.3154 26.333 23.6387 25.8739 23.8683 25.3422L22.9502 24.9458ZM22.2244 25.9745C21.9124 26.259 21.5422 26.4825 21.1079 26.643L21.4546 27.581C22.0016 27.3788 22.4848 27.0903 22.8981 26.7135L22.2244 25.9745ZM21.1079 26.643C20.676 26.8026 20.2124 26.884 19.7133 26.884V27.884C20.3235 27.884 20.9052 27.784 21.4546 27.581L21.1079 26.643ZM19.7133 26.884C18.9852 26.884 18.3434 26.7126 17.7754 26.3774L17.2671 27.2386C18.0004 27.6714 18.82 27.884 19.7133 27.884V26.884ZM17.7754 26.3774C17.2016 26.0388 16.7788 25.5947 16.4935 25.0425L15.605 25.5015C15.9811 26.2293 16.5396 26.8092 17.2671 27.2386L17.7754 26.3774ZM16.378 25.6487L17.258 24.8807L16.6005 24.1273L15.7205 24.8953L16.378 25.6487ZM16.5022 24.764C16.8424 25.3229 17.2944 25.7749 17.8533 26.1151L18.3732 25.2609C17.9508 25.0038 17.6135 24.6664 17.3564 24.244L16.5022 24.764ZM17.8574 26.1175C18.435 26.4617 19.0619 26.636 19.7293 26.636V25.636C19.2446 25.636 18.7942 25.5116 18.3692 25.2584L17.8574 26.1175ZM19.7293 26.636C20.152 26.636 20.5536 26.5611 20.9284 26.406L20.5461 25.482C20.3023 25.5829 20.0318 25.636 19.7293 25.636V26.636ZM20.9094 26.4134C21.2923 26.273 21.6276 26.0647 21.9068 25.7856L21.1997 25.0784C21.0309 25.2473 20.8222 25.3803 20.5651 25.4746L20.9094 26.4134ZM21.8896 25.802C22.1818 25.5363 22.4047 25.2128 22.5593 24.8392L21.6353 24.4568C21.5338 24.7019 21.394 24.901 21.2169 25.062L21.8896 25.802ZM22.5593 24.8392C22.7151 24.4626 22.7893 24.0554 22.7893 23.624H21.7893C21.7893 23.9393 21.7354 24.2147 21.6353 24.4568L22.5593 24.8392ZM22.7893 23.624C22.7893 23.21 22.7137 22.817 22.5568 22.451L21.6377 22.845C21.7369 23.0764 21.7893 23.334 21.7893 23.624H22.7893ZM22.5568 22.451C22.4035 22.0933 22.1896 21.7803 21.9141 21.5179L21.2244 22.2421C21.3969 22.4064 21.535 22.6053 21.6377 22.845L22.5568 22.451ZM21.9228 21.5264C21.6578 21.2615 21.3426 21.0595 20.9841 20.9186L20.6184 21.8494C20.8572 21.9432 21.054 22.0719 21.2157 22.2336L21.9228 21.5264ZM20.9841 20.9186C20.6235 20.777 20.2411 20.708 19.8413 20.708V21.708C20.124 21.708 20.3816 21.7563 20.6184 21.8494L20.9841 20.9186ZM19.8413 20.708C19.3059 20.708 18.7973 20.827 18.3217 21.0648L18.7689 21.9592C19.1039 21.7917 19.4592 21.708 19.8413 21.708V20.708ZM18.3169 21.0672C17.8468 21.3086 17.4588 21.6529 17.1569 22.0932L17.9816 22.6588C18.1917 22.3524 18.4544 22.1208 18.7737 21.9568L18.3169 21.0672ZM17.5693 21.876H16.3053V22.876H17.5693V21.876ZM16.7955 22.4741C16.8062 22.4207 16.8329 22.2874 16.8755 22.0741L15.895 21.8779C15.8523 22.0913 15.8256 22.2246 15.815 22.2779L16.7955 22.4741ZM16.8764 22.0696C16.9185 21.8489 16.9712 21.585 17.0349 21.2773L16.0556 21.0747C15.9913 21.3857 15.9374 21.6551 15.8941 21.8824L16.8764 22.0696ZM17.0355 21.2741C17.0998 20.953 17.1693 20.6001 17.2441 20.2154L16.2625 20.0246C16.1879 20.4079 16.1188 20.759 16.055 21.0779L17.0355 21.2741ZM17.2441 20.2154C17.3189 19.8306 17.3937 19.4404 17.4685 19.0449L16.486 18.8591C16.4115 19.2529 16.337 19.6414 16.2625 20.0246L17.2441 20.2154ZM17.4678 19.049C17.6492 18.1314 17.8519 17.1018 18.0759 15.9603L17.0946 15.7677C16.8707 16.9089 16.668 17.938 16.4867 18.855L17.4678 19.049ZM17.5853 16.364H23.1053V15.364H17.5853V16.364ZM22.6053 15.864V17.16H23.6053V15.864H22.6053ZM23.1053 16.66H18.6253V17.66H23.1053V16.66ZM18.1341 17.0665L17.4461 20.6825L18.4284 20.8695L19.1164 17.2535L18.1341 17.0665ZM18.2986 21.1216C18.4778 20.9343 18.7081 20.7804 19.0005 20.6652L18.634 19.7348C18.2224 19.8969 17.8661 20.1271 17.5759 20.4304L18.2986 21.1216ZM19.0125 20.6603C19.2931 20.5413 19.625 20.476 20.0173 20.476V19.476C19.5135 19.476 19.0454 19.5601 18.622 19.7397L19.0125 20.6603Z" fill="#D5C183"/>
</svg>
