<svg width="343" height="295" viewBox="0 0 343 295" fill="none" xmlns="http://www.w3.org/2000/svg">
<path d="M7.62402 0.000238442C3.41327 0.000238442 0 3.30214 0 7.37524C0 11.4483 3.41327 14.7502 7.62402 14.7502H54.7976L94.9427 198.204C95.9167 202.736 99.0463 206.548 102.924 206.5H293.525C297.553 206.556 301.257 203.022 301.257 199.125C301.257 195.229 297.553 191.696 293.525 191.75H109.119L102.686 162.25H308.773C312.186 162.214 315.412 159.711 316.159 156.489L342.843 45.8637C343.834 41.5836 339.991 36.9068 335.457 36.8755H75.2872L68.4973 5.76196C67.7417 2.50228 64.4455 -0.0282659 60.9922 0.000238442H7.62402ZM78.5038 51.6255H146.048L153.076 92.1877H87.438L78.5038 51.6255ZM161.415 51.6255H242.658L235.63 92.1877H168.443L161.415 51.6255ZM258.025 51.6255H325.927L316.159 92.1877H250.997L258.025 51.6255ZM90.6542 106.938H155.578L162.606 147.5H99.4698L90.6542 106.938ZM171.064 106.938H233.009L226.1 147.5H177.973L171.064 106.938ZM248.495 106.938H312.585L302.697 147.5H241.467L248.495 106.938ZM144.856 228.625C125.999 228.625 110.548 243.571 110.548 261.812C110.548 280.054 125.999 295 144.856 295C163.714 295 179.164 280.054 179.164 261.812C179.164 243.571 163.714 228.625 144.856 228.625ZM251.593 228.625C232.735 228.625 217.285 243.571 217.285 261.812C217.285 280.054 232.735 295 251.593 295C270.45 295 285.901 280.054 285.901 261.812C285.901 243.571 270.45 228.625 251.593 228.625ZM144.856 243.375C155.473 243.375 163.916 251.542 163.916 261.812C163.916 272.083 155.473 280.25 144.856 280.25C134.24 280.25 125.796 272.083 125.796 261.812C125.796 251.542 134.24 243.375 144.856 243.375ZM251.593 243.375C262.21 243.375 270.653 251.542 270.653 261.812C270.653 272.083 262.21 280.25 251.593 280.25C240.976 280.25 232.533 272.083 232.533 261.812C232.533 251.542 240.976 243.375 251.593 243.375Z" fill="#D5C183"/>
</svg>
