<svg width="82" height="55" viewBox="0 0 82 55" fill="none" xmlns="http://www.w3.org/2000/svg">
<path d="M52.073 10.1211H30.6826V45.3367H52.073V10.1211Z" fill="#FF5F00"/>
<path d="M32.8857 27.7324C32.883 24.3414 33.6457 20.9943 35.1158 17.9443C36.586 14.8943 38.7252 12.2213 41.3715 10.1277C38.0939 7.53129 34.1577 5.91674 30.0128 5.46858C25.868 5.02041 21.6816 5.75671 17.9322 7.59331C14.1829 9.42992 11.0217 12.2927 8.81017 15.8546C6.59859 19.4164 5.42578 23.5336 5.42578 27.7355C5.42578 31.9374 6.59859 36.0546 8.81017 39.6164C11.0217 43.1783 14.1829 46.0411 17.9322 47.8777C21.6816 49.7143 25.868 50.4506 30.0128 50.0024C34.1577 49.5543 38.0939 47.9397 41.3715 45.3433C38.7244 43.249 36.5847 40.5751 35.1145 37.5239C33.6443 34.4728 32.8821 31.1244 32.8857 27.7324Z" fill="#EB001B"/>
<path d="M75.1978 41.6107V40.889H75.5064V40.7397H74.772V40.889H75.062V41.6107H75.1978ZM76.6234 41.6107V40.7397H76.4012L76.142 41.3618L75.8828 40.7397H75.6607V41.6107H75.8211V40.9512L76.0618 41.5173H76.2284L76.4691 40.9512V41.6107H76.6234Z" fill="#F79E1B"/>
<path d="M77.3206 27.7324C77.3205 31.9347 76.1474 36.0521 73.9354 39.614C71.7235 43.176 68.5619 46.0388 64.812 47.8751C61.0622 49.7115 56.8754 50.4473 52.7303 49.9985C48.5852 49.5497 44.649 47.9343 41.3716 45.3371C44.0169 43.2416 46.1555 40.5679 47.626 37.5177C49.0966 34.4676 49.8607 31.1206 49.8607 27.7293C49.8607 24.338 49.0966 20.991 47.626 17.9409C46.1555 14.8907 44.0169 12.217 41.3716 10.1215C44.649 7.52428 48.5852 5.90895 52.7303 5.46014C56.8754 5.01133 61.0622 5.74715 64.812 7.5835C68.5619 9.41984 71.7235 12.2826 73.9354 15.8446C76.1474 19.4065 77.3205 23.524 77.3206 27.7262V27.7324Z" fill="#F79E1B"/>
</svg>
