<svg width="1618" height="338" viewBox="0 0 1618 338" fill="none" xmlns="http://www.w3.org/2000/svg">
<path d="M12.2895 331V311.12H20.6615C21.5202 311.12 22.3135 311.307 23.0415 311.68C23.7695 312.035 24.3949 312.511 24.9175 313.108C25.4402 313.687 25.8415 314.349 26.1215 315.096C26.4202 315.843 26.5695 316.599 26.5695 317.364C26.5695 318.092 26.4575 318.792 26.2335 319.464C26.0282 320.117 25.7295 320.715 25.3375 321.256C24.9455 321.779 24.4789 322.227 23.9375 322.6C23.3962 322.955 22.7895 323.197 22.1175 323.328L27.0175 331H24.8055L20.1015 323.664H14.2215V331H12.2895ZM14.2215 321.928H20.7455C21.3242 321.928 21.8469 321.807 22.3135 321.564C22.7989 321.303 23.2095 320.957 23.5455 320.528C23.8815 320.099 24.1429 319.613 24.3295 319.072C24.5162 318.531 24.6095 317.961 24.6095 317.364C24.6095 316.767 24.4975 316.197 24.2735 315.656C24.0682 315.096 23.7789 314.611 23.4055 314.2C23.0509 313.789 22.6215 313.463 22.1175 313.22C21.6322 312.977 21.1189 312.856 20.5775 312.856H14.2215V321.928ZM36.6819 331.28C35.6179 331.28 34.6379 331.084 33.7419 330.692C32.8459 330.281 32.0712 329.731 31.4179 329.04C30.7646 328.331 30.2512 327.519 29.8779 326.604C29.5232 325.689 29.3459 324.709 29.3459 323.664C29.3459 322.637 29.5232 321.676 29.8779 320.78C30.2512 319.865 30.7646 319.072 31.4179 318.4C32.0712 317.709 32.8366 317.168 33.7139 316.776C34.6099 316.365 35.5899 316.16 36.6539 316.16C37.7179 316.16 38.6886 316.365 39.5659 316.776C40.4619 317.168 41.2272 317.709 41.8619 318.4C42.4966 319.091 42.9912 319.884 43.3459 320.78C43.7006 321.676 43.8779 322.628 43.8779 323.636C43.8779 323.785 43.8686 323.935 43.8499 324.084C43.8499 324.233 43.8406 324.336 43.8219 324.392H31.3619C31.4179 325.176 31.5952 325.904 31.8939 326.576C32.2112 327.229 32.6032 327.799 33.0699 328.284C33.5552 328.769 34.1059 329.152 34.7219 329.432C35.3566 329.693 36.0286 329.824 36.7379 329.824C37.2232 329.824 37.6992 329.759 38.1659 329.628C38.6326 329.497 39.0619 329.32 39.4539 329.096C39.8459 328.872 40.1912 328.601 40.4899 328.284C40.8072 327.948 41.0499 327.584 41.2179 327.192L42.8699 327.64C42.6459 328.181 42.3286 328.676 41.9179 329.124C41.5072 329.553 41.0312 329.936 40.4899 330.272C39.9486 330.589 39.3512 330.832 38.6979 331C38.0446 331.187 37.3726 331.28 36.6819 331.28ZM42.0579 322.936C42.0019 322.152 41.8152 321.443 41.4979 320.808C41.1992 320.155 40.8072 319.595 40.3219 319.128C39.8552 318.661 39.3046 318.297 38.6699 318.036C38.0352 317.775 37.3632 317.644 36.6539 317.644C35.9446 317.644 35.2726 317.775 34.6379 318.036C34.0032 318.297 33.4432 318.661 32.9579 319.128C32.4912 319.595 32.1086 320.155 31.8099 320.808C31.5299 321.461 31.3619 322.171 31.3059 322.936H42.0579ZM45.7795 323.664C45.7795 322.637 45.9568 321.667 46.3115 320.752C46.6662 319.837 47.1608 319.044 47.7955 318.372C48.4488 317.681 49.2235 317.14 50.1195 316.748C51.0155 316.356 52.0048 316.16 53.0875 316.16C54.4688 316.16 55.6728 316.477 56.6995 317.112C57.7262 317.728 58.5008 318.568 59.0235 319.632L57.1755 320.22C56.7648 319.473 56.1955 318.895 55.4675 318.484C54.7395 318.055 53.9275 317.84 53.0315 317.84C52.2848 317.84 51.5848 317.989 50.9315 318.288C50.2968 318.587 49.7368 318.997 49.2515 319.52C48.7848 320.024 48.4115 320.631 48.1315 321.34C47.8702 322.049 47.7395 322.824 47.7395 323.664C47.7395 324.485 47.8795 325.26 48.1595 325.988C48.4395 326.716 48.8222 327.351 49.3075 327.892C49.7928 328.415 50.3528 328.835 50.9875 329.152C51.6408 329.451 52.3315 329.6 53.0595 329.6C53.5262 329.6 53.9835 329.535 54.4315 329.404C54.8982 329.273 55.3275 329.096 55.7195 328.872C56.1115 328.629 56.4475 328.359 56.7275 328.06C57.0075 327.761 57.2035 327.444 57.3155 327.108L59.1635 327.668C58.9582 328.191 58.6595 328.676 58.2675 329.124C57.8755 329.553 57.4088 329.936 56.8675 330.272C56.3448 330.589 55.7568 330.832 55.1035 331C54.4688 331.187 53.8062 331.28 53.1155 331.28C52.0515 331.28 51.0715 331.084 50.1755 330.692C49.2795 330.281 48.5048 329.731 47.8515 329.04C47.1982 328.331 46.6848 327.519 46.3115 326.604C45.9568 325.689 45.7795 324.709 45.7795 323.664ZM68.51 331.28C67.446 331.28 66.466 331.084 65.57 330.692C64.674 330.281 63.8994 329.731 63.246 329.04C62.5927 328.331 62.0794 327.519 61.706 326.604C61.3514 325.689 61.174 324.709 61.174 323.664C61.174 322.637 61.3514 321.676 61.706 320.78C62.0794 319.865 62.5927 319.072 63.246 318.4C63.8994 317.709 64.6647 317.168 65.542 316.776C66.438 316.365 67.418 316.16 68.482 316.16C69.546 316.16 70.5167 316.365 71.394 316.776C72.29 317.168 73.0554 317.709 73.69 318.4C74.3247 319.091 74.8194 319.884 75.174 320.78C75.5287 321.676 75.706 322.628 75.706 323.636C75.706 323.785 75.6967 323.935 75.678 324.084C75.678 324.233 75.6687 324.336 75.65 324.392H63.19C63.246 325.176 63.4234 325.904 63.722 326.576C64.0394 327.229 64.4314 327.799 64.898 328.284C65.3834 328.769 65.934 329.152 66.55 329.432C67.1847 329.693 67.8567 329.824 68.566 329.824C69.0514 329.824 69.5274 329.759 69.994 329.628C70.4607 329.497 70.89 329.32 71.282 329.096C71.674 328.872 72.0194 328.601 72.318 328.284C72.6354 327.948 72.878 327.584 73.046 327.192L74.698 327.64C74.474 328.181 74.1567 328.676 73.746 329.124C73.3354 329.553 72.8594 329.936 72.318 330.272C71.7767 330.589 71.1794 330.832 70.526 331C69.8727 331.187 69.2007 331.28 68.51 331.28ZM73.886 322.936C73.83 322.152 73.6434 321.443 73.326 320.808C73.0274 320.155 72.6354 319.595 72.15 319.128C71.6834 318.661 71.1327 318.297 70.498 318.036C69.8634 317.775 69.1914 317.644 68.482 317.644C67.7727 317.644 67.1007 317.775 66.466 318.036C65.8314 318.297 65.2714 318.661 64.786 319.128C64.3194 319.595 63.9367 320.155 63.638 320.808C63.358 321.461 63.19 322.171 63.134 322.936H73.886ZM78.5596 331V316.412H80.4636V331H78.5596ZM78.5596 313.36V310.56H80.4636V313.36H78.5596ZM88.9159 331L82.9799 316.412H84.9679L89.9799 329.236L95.0199 316.412H96.8679L90.9319 331H88.9159ZM105.78 331.28C104.716 331.28 103.736 331.084 102.84 330.692C101.944 330.281 101.169 329.731 100.516 329.04C99.8622 328.331 99.3489 327.519 98.9756 326.604C98.6209 325.689 98.4436 324.709 98.4436 323.664C98.4436 322.637 98.6209 321.676 98.9756 320.78C99.3489 319.865 99.8622 319.072 100.516 318.4C101.169 317.709 101.934 317.168 102.812 316.776C103.708 316.365 104.688 316.16 105.752 316.16C106.816 316.16 107.786 316.365 108.664 316.776C109.56 317.168 110.325 317.709 110.96 318.4C111.594 319.091 112.089 319.884 112.444 320.78C112.798 321.676 112.976 322.628 112.976 323.636C112.976 323.785 112.966 323.935 112.948 324.084C112.948 324.233 112.938 324.336 112.92 324.392H100.46C100.516 325.176 100.693 325.904 100.992 326.576C101.309 327.229 101.701 327.799 102.168 328.284C102.653 328.769 103.204 329.152 103.82 329.432C104.454 329.693 105.126 329.824 105.836 329.824C106.321 329.824 106.797 329.759 107.264 329.628C107.73 329.497 108.16 329.32 108.552 329.096C108.944 328.872 109.289 328.601 109.588 328.284C109.905 327.948 110.148 327.584 110.316 327.192L111.968 327.64C111.744 328.181 111.426 328.676 111.016 329.124C110.605 329.553 110.129 329.936 109.588 330.272C109.046 330.589 108.449 330.832 107.796 331C107.142 331.187 106.47 331.28 105.78 331.28ZM111.156 322.936C111.1 322.152 110.913 321.443 110.596 320.808C110.297 320.155 109.905 319.595 109.42 319.128C108.953 318.661 108.402 318.297 107.768 318.036C107.133 317.775 106.461 317.644 105.752 317.644C105.042 317.644 104.37 317.775 103.736 318.036C103.101 318.297 102.541 318.661 102.056 319.128C101.589 319.595 101.206 320.155 100.908 320.808C100.628 321.461 100.46 322.171 100.404 322.936H111.156ZM121.877 331.28C120.869 331.28 119.936 331.075 119.077 330.664C118.218 330.235 117.472 329.675 116.837 328.984C116.221 328.293 115.736 327.5 115.381 326.604C115.045 325.689 114.877 324.737 114.877 323.748C114.877 322.721 115.045 321.751 115.381 320.836C115.717 319.903 116.174 319.091 116.753 318.4C117.35 317.709 118.05 317.168 118.853 316.776C119.674 316.365 120.57 316.16 121.541 316.16C122.773 316.16 123.865 316.487 124.817 317.14C125.769 317.775 126.525 318.549 127.085 319.464V310.56H128.989V328.536C128.989 329.059 129.213 329.32 129.661 329.32V331C129.344 331.056 129.092 331.084 128.905 331.084C128.438 331.084 128.056 330.953 127.757 330.692C127.458 330.412 127.309 330.085 127.309 329.712V328.172C126.712 329.124 125.918 329.88 124.929 330.44C123.958 331 122.941 331.28 121.877 331.28ZM122.269 329.6C122.754 329.6 123.258 329.507 123.781 329.32C124.322 329.133 124.817 328.881 125.265 328.564C125.732 328.228 126.133 327.845 126.469 327.416C126.805 326.968 127.01 326.492 127.085 325.988V321.48C126.898 320.976 126.618 320.509 126.245 320.08C125.89 319.632 125.48 319.24 125.013 318.904C124.565 318.568 124.08 318.307 123.557 318.12C123.053 317.933 122.549 317.84 122.045 317.84C121.261 317.84 120.542 318.008 119.889 318.344C119.254 318.68 118.713 319.128 118.265 319.688C117.817 320.229 117.462 320.855 117.201 321.564C116.958 322.273 116.837 323.001 116.837 323.748C116.837 324.532 116.977 325.279 117.257 325.988C117.537 326.697 117.92 327.323 118.405 327.864C118.89 328.387 119.46 328.807 120.113 329.124C120.785 329.441 121.504 329.6 122.269 329.6Z" fill="#6B6B6A"/>
<path d="M384.772 331L393.088 311.12H394.684L403 331H400.9L398.324 324.784H389.392L386.844 331H384.772ZM393.9 313.416L389.812 323.244H397.876L393.9 313.416ZM411.799 330.3C411.687 330.356 411.519 330.431 411.295 330.524C411.09 330.617 410.847 330.711 410.567 330.804C410.287 330.897 409.97 330.981 409.615 331.056C409.261 331.131 408.887 331.168 408.495 331.168C408.085 331.168 407.693 331.112 407.319 331C406.946 330.888 406.619 330.72 406.339 330.496C406.059 330.253 405.835 329.955 405.667 329.6C405.499 329.245 405.415 328.835 405.415 328.368V317.924H403.399V316.412H405.415V311.484H407.319V316.412H410.679V317.924H407.319V327.836C407.357 328.377 407.543 328.779 407.879 329.04C408.215 329.283 408.617 329.404 409.083 329.404C409.625 329.404 410.101 329.32 410.511 329.152C410.922 328.965 411.183 328.835 411.295 328.76L411.799 330.3ZM421.68 331V311.12H428.4C429.987 311.12 431.377 311.381 432.572 311.904C433.767 312.427 434.756 313.136 435.54 314.032C436.343 314.928 436.94 315.983 437.332 317.196C437.724 318.391 437.92 319.669 437.92 321.032C437.92 322.544 437.696 323.916 437.248 325.148C436.8 326.361 436.165 327.407 435.344 328.284C434.523 329.143 433.524 329.815 432.348 330.3C431.172 330.767 429.856 331 428.4 331H421.68ZM435.96 321.032C435.96 319.837 435.792 318.745 435.456 317.756C435.12 316.748 434.625 315.88 433.972 315.152C433.337 314.424 432.553 313.864 431.62 313.472C430.687 313.061 429.613 312.856 428.4 312.856H423.612V329.264H428.4C429.632 329.264 430.715 329.059 431.648 328.648C432.6 328.219 433.393 327.64 434.028 326.912C434.663 326.165 435.139 325.297 435.456 324.308C435.792 323.3 435.96 322.208 435.96 321.032ZM447.686 331.28C446.622 331.28 445.642 331.084 444.746 330.692C443.85 330.281 443.075 329.731 442.422 329.04C441.768 328.331 441.255 327.519 440.882 326.604C440.527 325.689 440.35 324.709 440.35 323.664C440.35 322.637 440.527 321.676 440.882 320.78C441.255 319.865 441.768 319.072 442.422 318.4C443.075 317.709 443.84 317.168 444.718 316.776C445.614 316.365 446.594 316.16 447.658 316.16C448.722 316.16 449.692 316.365 450.57 316.776C451.466 317.168 452.231 317.709 452.866 318.4C453.5 319.091 453.995 319.884 454.35 320.78C454.704 321.676 454.882 322.628 454.882 323.636C454.882 323.785 454.872 323.935 454.854 324.084C454.854 324.233 454.844 324.336 454.826 324.392H442.366C442.422 325.176 442.599 325.904 442.898 326.576C443.215 327.229 443.607 327.799 444.074 328.284C444.559 328.769 445.11 329.152 445.726 329.432C446.36 329.693 447.032 329.824 447.742 329.824C448.227 329.824 448.703 329.759 449.17 329.628C449.636 329.497 450.066 329.32 450.458 329.096C450.85 328.872 451.195 328.601 451.494 328.284C451.811 327.948 452.054 327.584 452.222 327.192L453.874 327.64C453.65 328.181 453.332 328.676 452.922 329.124C452.511 329.553 452.035 329.936 451.494 330.272C450.952 330.589 450.355 330.832 449.702 331C449.048 331.187 448.376 331.28 447.686 331.28ZM453.062 322.936C453.006 322.152 452.819 321.443 452.502 320.808C452.203 320.155 451.811 319.595 451.326 319.128C450.859 318.661 450.308 318.297 449.674 318.036C449.039 317.775 448.367 317.644 447.658 317.644C446.948 317.644 446.276 317.775 445.642 318.036C445.007 318.297 444.447 318.661 443.962 319.128C443.495 319.595 443.112 320.155 442.814 320.808C442.534 321.461 442.366 322.171 442.31 322.936H453.062ZM465.211 331.28C463.979 331.28 462.887 330.972 461.935 330.356C460.983 329.721 460.218 328.928 459.639 327.976V336.964H457.735V316.412H459.443V319.24C460.041 318.325 460.815 317.588 461.767 317.028C462.719 316.449 463.755 316.16 464.875 316.16C465.883 316.16 466.807 316.375 467.647 316.804C468.506 317.215 469.243 317.775 469.859 318.484C470.475 319.175 470.951 319.977 471.287 320.892C471.642 321.807 471.819 322.749 471.819 323.72C471.819 324.747 471.661 325.717 471.343 326.632C471.026 327.547 470.569 328.349 469.971 329.04C469.393 329.731 468.693 330.281 467.871 330.692C467.069 331.084 466.182 331.28 465.211 331.28ZM464.679 329.6C465.463 329.6 466.173 329.432 466.807 329.096C467.442 328.76 467.983 328.321 468.431 327.78C468.898 327.22 469.253 326.595 469.495 325.904C469.738 325.195 469.859 324.467 469.859 323.72C469.859 322.936 469.719 322.189 469.439 321.48C469.159 320.771 468.777 320.145 468.291 319.604C467.806 319.063 467.227 318.633 466.555 318.316C465.902 317.999 465.193 317.84 464.427 317.84C463.942 317.84 463.438 317.943 462.915 318.148C462.393 318.335 461.898 318.596 461.431 318.932C460.965 319.249 460.563 319.632 460.227 320.08C459.91 320.509 459.714 320.967 459.639 321.452V325.932C459.863 326.455 460.143 326.94 460.479 327.388C460.834 327.836 461.226 328.228 461.655 328.564C462.103 328.881 462.579 329.133 463.083 329.32C463.606 329.507 464.138 329.6 464.679 329.6ZM481.262 331.28C480.198 331.28 479.218 331.084 478.322 330.692C477.445 330.281 476.679 329.731 476.026 329.04C475.391 328.349 474.897 327.547 474.542 326.632C474.187 325.717 474.01 324.756 474.01 323.748C474.01 322.721 474.187 321.751 474.542 320.836C474.915 319.921 475.419 319.119 476.054 318.428C476.707 317.737 477.473 317.187 478.35 316.776C479.246 316.365 480.217 316.16 481.262 316.16C482.307 316.16 483.269 316.365 484.146 316.776C485.042 317.187 485.807 317.737 486.442 318.428C487.095 319.119 487.599 319.921 487.954 320.836C488.327 321.751 488.514 322.721 488.514 323.748C488.514 324.756 488.327 325.717 487.954 326.632C487.599 327.547 487.095 328.349 486.442 329.04C485.807 329.731 485.042 330.281 484.146 330.692C483.269 331.084 482.307 331.28 481.262 331.28ZM475.97 323.776C475.97 324.597 476.101 325.363 476.362 326.072C476.642 326.763 477.015 327.379 477.482 327.92C477.967 328.443 478.527 328.853 479.162 329.152C479.815 329.451 480.506 329.6 481.234 329.6C481.962 329.6 482.643 329.451 483.278 329.152C483.931 328.835 484.501 328.415 484.986 327.892C485.471 327.351 485.854 326.725 486.134 326.016C486.414 325.307 486.554 324.541 486.554 323.72C486.554 322.917 486.414 322.161 486.134 321.452C485.854 320.724 485.471 320.099 484.986 319.576C484.501 319.035 483.941 318.615 483.306 318.316C482.671 317.999 481.99 317.84 481.262 317.84C480.534 317.84 479.843 317.999 479.19 318.316C478.555 318.615 477.995 319.035 477.51 319.576C477.043 320.117 476.67 320.752 476.39 321.48C476.11 322.189 475.97 322.955 475.97 323.776ZM498.452 330.3C498.34 330.356 498.172 330.431 497.948 330.524C497.742 330.617 497.5 330.711 497.22 330.804C496.94 330.897 496.622 330.981 496.268 331.056C495.913 331.131 495.54 331.168 495.148 331.168C494.737 331.168 494.345 331.112 493.972 331C493.598 330.888 493.272 330.72 492.992 330.496C492.712 330.253 492.488 329.955 492.32 329.6C492.152 329.245 492.068 328.835 492.068 328.368V317.924H490.052V316.412H492.068V311.484H493.972V316.412H497.332V317.924H493.972V327.836C494.009 328.377 494.196 328.779 494.532 329.04C494.868 329.283 495.269 329.404 495.736 329.404C496.277 329.404 496.753 329.32 497.164 329.152C497.574 328.965 497.836 328.835 497.948 328.76L498.452 330.3Z" fill="#6B6B6A"/>
<path d="M754.614 331V311.148H756.546V331H754.614ZM773.374 331H771.47V322.852C771.47 321.116 771.218 319.856 770.714 319.072C770.21 318.288 769.426 317.896 768.362 317.896C767.802 317.896 767.242 317.999 766.682 318.204C766.122 318.409 765.6 318.699 765.114 319.072C764.629 319.445 764.2 319.893 763.826 320.416C763.472 320.92 763.201 321.471 763.014 322.068V331H761.11V316.412H762.846V319.716C763.145 319.193 763.509 318.717 763.938 318.288C764.386 317.84 764.881 317.457 765.422 317.14C765.964 316.823 766.533 316.58 767.13 316.412C767.746 316.244 768.381 316.16 769.034 316.16C769.856 316.16 770.537 316.309 771.078 316.608C771.638 316.907 772.086 317.327 772.422 317.868C772.758 318.409 773.001 319.072 773.15 319.856C773.3 320.64 773.374 321.508 773.374 322.46V331ZM798.34 312.856H791.256V331H789.296V312.856H782.212V311.12H798.34V312.856ZM808.203 318.092C806.915 318.129 805.795 318.484 804.843 319.156C803.891 319.828 803.219 320.752 802.827 321.928V331H800.923V316.412H802.715V319.912C803.219 318.885 803.882 318.036 804.703 317.364C805.524 316.673 806.411 316.328 807.363 316.328C807.531 316.328 807.69 316.328 807.839 316.328C807.988 316.328 808.11 316.337 808.203 316.356V318.092ZM814.33 331.28C813.583 331.28 812.902 331.168 812.286 330.944C811.67 330.701 811.138 330.375 810.69 329.964C810.261 329.553 809.925 329.077 809.682 328.536C809.439 327.995 809.318 327.425 809.318 326.828C809.318 326.156 809.467 325.549 809.766 325.008C810.065 324.448 810.485 323.972 811.026 323.58C811.567 323.188 812.211 322.889 812.958 322.684C813.723 322.46 814.563 322.348 815.478 322.348C816.206 322.348 816.953 322.413 817.718 322.544C818.483 322.675 819.165 322.861 819.762 323.104V321.788C819.762 320.5 819.389 319.483 818.642 318.736C817.914 317.971 816.925 317.588 815.674 317.588C814.89 317.588 814.106 317.737 813.322 318.036C812.557 318.335 811.773 318.764 810.97 319.324L810.298 318.064C811.25 317.429 812.174 316.953 813.07 316.636C813.966 316.319 814.899 316.16 815.87 316.16C817.643 316.16 819.053 316.673 820.098 317.7C821.143 318.727 821.666 320.145 821.666 321.956V328.536C821.666 329.059 821.89 329.32 822.338 329.32V331C822.189 331.019 822.049 331.028 821.918 331.028C821.787 331.047 821.675 331.056 821.582 331.056C821.209 331.056 820.863 330.944 820.546 330.72C820.247 330.496 820.079 330.16 820.042 329.712L819.986 328.564C819.351 329.423 818.511 330.095 817.466 330.58C816.439 331.047 815.394 331.28 814.33 331.28ZM814.806 329.824C815.646 329.824 816.477 329.647 817.298 329.292C818.138 328.919 818.801 328.415 819.286 327.78C819.417 327.612 819.529 327.435 819.622 327.248C819.715 327.043 819.762 326.856 819.762 326.688V324.308C819.127 324.065 818.465 323.879 817.774 323.748C817.083 323.617 816.411 323.552 815.758 323.552C814.395 323.552 813.285 323.832 812.426 324.392C811.586 324.933 811.166 325.689 811.166 326.66C811.166 327.052 811.241 327.435 811.39 327.808C811.539 328.181 811.763 328.517 812.062 328.816C812.379 329.115 812.762 329.357 813.21 329.544C813.658 329.731 814.19 329.824 814.806 329.824ZM838.07 331H836.166V322.852C836.166 321.116 835.914 319.856 835.41 319.072C834.906 318.288 834.122 317.896 833.058 317.896C832.498 317.896 831.938 317.999 831.378 318.204C830.818 318.409 830.295 318.699 829.81 319.072C829.324 319.445 828.895 319.893 828.522 320.416C828.167 320.92 827.896 321.471 827.71 322.068V331H825.806V316.412H827.542V319.716C827.84 319.193 828.204 318.717 828.634 318.288C829.082 317.84 829.576 317.457 830.118 317.14C830.659 316.823 831.228 316.58 831.826 316.412C832.442 316.244 833.076 316.16 833.73 316.16C834.551 316.16 835.232 316.309 835.774 316.608C836.334 316.907 836.782 317.327 837.118 317.868C837.454 318.409 837.696 319.072 837.846 319.856C837.995 320.64 838.07 321.508 838.07 322.46V331ZM846.921 331.28C845.782 331.28 844.671 331.093 843.589 330.72C842.506 330.347 841.573 329.805 840.789 329.096L841.657 327.808C842.478 328.48 843.309 328.984 844.149 329.32C845.007 329.656 845.922 329.824 846.893 329.824C848.069 329.824 849.002 329.591 849.693 329.124C850.402 328.639 850.757 327.957 850.757 327.08C850.757 326.669 850.663 326.333 850.477 326.072C850.29 325.792 850.01 325.549 849.637 325.344C849.282 325.139 848.825 324.961 848.265 324.812C847.723 324.644 847.089 324.476 846.361 324.308C845.521 324.103 844.793 323.897 844.177 323.692C843.561 323.487 843.047 323.253 842.637 322.992C842.245 322.731 841.946 322.413 841.741 322.04C841.554 321.648 841.461 321.163 841.461 320.584C841.461 319.856 841.601 319.212 841.881 318.652C842.179 318.092 842.571 317.635 843.057 317.28C843.561 316.907 844.139 316.627 844.793 316.44C845.465 316.253 846.174 316.16 846.921 316.16C848.041 316.16 849.058 316.347 849.973 316.72C850.887 317.075 851.625 317.551 852.185 318.148L851.261 319.268C850.719 318.708 850.057 318.288 849.273 318.008C848.507 317.728 847.705 317.588 846.865 317.588C846.361 317.588 845.894 317.644 845.465 317.756C845.035 317.849 844.653 318.008 844.317 318.232C843.999 318.456 843.747 318.745 843.561 319.1C843.374 319.436 843.281 319.837 843.281 320.304C843.281 320.696 843.346 321.013 843.477 321.256C843.607 321.499 843.822 321.713 844.121 321.9C844.419 322.068 844.793 322.227 845.241 322.376C845.707 322.507 846.267 322.647 846.921 322.796C847.854 323.02 848.675 323.244 849.385 323.468C850.094 323.692 850.682 323.953 851.149 324.252C851.634 324.551 851.998 324.915 852.241 325.344C852.483 325.773 852.605 326.296 852.605 326.912C852.605 328.256 852.091 329.32 851.065 330.104C850.038 330.888 848.657 331.28 846.921 331.28ZM855.665 331V316.412H857.569V331H855.665ZM855.665 313.36V310.56H857.569V313.36H855.665ZM868.709 330.3C868.597 330.356 868.429 330.431 868.205 330.524C868 330.617 867.757 330.711 867.477 330.804C867.197 330.897 866.88 330.981 866.525 331.056C866.171 331.131 865.797 331.168 865.405 331.168C864.995 331.168 864.603 331.112 864.229 331C863.856 330.888 863.529 330.72 863.249 330.496C862.969 330.253 862.745 329.955 862.577 329.6C862.409 329.245 862.325 328.835 862.325 328.368V317.924H860.309V316.412H862.325V311.484H864.229V316.412H867.589V317.924H864.229V327.836C864.267 328.377 864.453 328.779 864.789 329.04C865.125 329.283 865.527 329.404 865.993 329.404C866.535 329.404 867.011 329.32 867.421 329.152C867.832 328.965 868.093 328.835 868.205 328.76L868.709 330.3Z" fill="#6B6B6A"/>
<path d="M1089.17 331.14C1087.78 331.14 1086.52 330.86 1085.36 330.3C1084.22 329.721 1083.24 328.965 1082.42 328.032C1081.6 327.08 1080.96 325.997 1080.51 324.784C1080.07 323.571 1079.84 322.329 1079.84 321.06C1079.84 319.735 1080.08 318.465 1080.54 317.252C1081.03 316.039 1081.69 314.965 1082.53 314.032C1083.37 313.099 1084.36 312.361 1085.5 311.82C1086.64 311.26 1087.87 310.98 1089.19 310.98C1090.58 310.98 1091.84 311.279 1092.97 311.876C1094.13 312.455 1095.11 313.22 1095.91 314.172C1096.74 315.124 1097.37 316.207 1097.82 317.42C1098.27 318.615 1098.49 319.837 1098.49 321.088C1098.49 322.413 1098.25 323.683 1097.76 324.896C1097.3 326.109 1096.64 327.183 1095.8 328.116C1094.98 329.031 1094 329.768 1092.86 330.328C1091.72 330.869 1090.49 331.14 1089.17 331.14ZM1081.8 321.06C1081.8 322.143 1081.98 323.188 1082.33 324.196C1082.69 325.185 1083.19 326.072 1083.85 326.856C1084.5 327.621 1085.27 328.237 1086.17 328.704C1087.07 329.152 1088.06 329.376 1089.17 329.376C1090.29 329.376 1091.3 329.133 1092.22 328.648C1093.13 328.163 1093.91 327.528 1094.54 326.744C1095.18 325.96 1095.66 325.073 1096 324.084C1096.35 323.095 1096.53 322.087 1096.53 321.06C1096.53 319.977 1096.34 318.941 1095.97 317.952C1095.62 316.944 1095.11 316.057 1094.46 315.292C1093.8 314.527 1093.03 313.92 1092.13 313.472C1091.24 313.005 1090.25 312.772 1089.17 312.772C1088.05 312.772 1087.03 313.015 1086.11 313.5C1085.2 313.967 1084.42 314.592 1083.79 315.376C1083.16 316.16 1082.66 317.047 1082.31 318.036C1081.97 319.025 1081.8 320.033 1081.8 321.06ZM1106.27 331.28C1104.74 331.28 1103.58 330.757 1102.8 329.712C1102.01 328.648 1101.62 327.071 1101.62 324.98V316.412H1103.53V324.644C1103.53 327.948 1104.66 329.6 1106.91 329.6C1107.47 329.6 1108.03 329.507 1108.57 329.32C1109.11 329.133 1109.6 328.863 1110.05 328.508C1110.52 328.153 1110.93 327.733 1111.28 327.248C1111.66 326.763 1111.95 326.212 1112.18 325.596V316.412H1114.08V328.536C1114.08 329.059 1114.32 329.32 1114.78 329.32V331C1114.41 331.056 1114.15 331.084 1114 331.084C1113.57 331.084 1113.2 330.953 1112.88 330.692C1112.58 330.431 1112.43 330.104 1112.43 329.712V327.696C1111.78 328.835 1110.91 329.721 1109.83 330.356C1108.74 330.972 1107.56 331.28 1106.27 331.28ZM1125.42 330.3C1125.3 330.356 1125.14 330.431 1124.91 330.524C1124.71 330.617 1124.46 330.711 1124.18 330.804C1123.9 330.897 1123.59 330.981 1123.23 331.056C1122.88 331.131 1122.5 331.168 1122.11 331.168C1121.7 331.168 1121.31 331.112 1120.94 331C1120.56 330.888 1120.24 330.72 1119.96 330.496C1119.68 330.253 1119.45 329.955 1119.28 329.6C1119.12 329.245 1119.03 328.835 1119.03 328.368V317.924H1117.02V316.412H1119.03V311.484H1120.94V316.412H1124.3V317.924H1120.94V327.836C1120.97 328.377 1121.16 328.779 1121.5 329.04C1121.83 329.283 1122.23 329.404 1122.7 329.404C1123.24 329.404 1123.72 329.32 1124.13 329.152C1124.54 328.965 1124.8 328.835 1124.91 328.76L1125.42 330.3ZM1135.61 331V319.632H1133.59V318.12H1135.61V316.02C1135.61 314.228 1135.99 312.828 1136.75 311.82C1137.52 310.793 1138.57 310.28 1139.92 310.28C1140.48 310.28 1141.03 310.364 1141.57 310.532C1142.11 310.7 1142.58 310.924 1142.97 311.204L1142.38 312.576C1142.12 312.371 1141.79 312.212 1141.4 312.1C1141.03 311.988 1140.65 311.932 1140.28 311.932C1139.39 311.932 1138.69 312.277 1138.21 312.968C1137.74 313.659 1137.51 314.657 1137.51 315.964V318.12H1141.54V319.632H1137.51V331H1135.61ZM1150.58 331.28C1149.52 331.28 1148.54 331.084 1147.64 330.692C1146.76 330.281 1146 329.731 1145.35 329.04C1144.71 328.349 1144.22 327.547 1143.86 326.632C1143.51 325.717 1143.33 324.756 1143.33 323.748C1143.33 322.721 1143.51 321.751 1143.86 320.836C1144.24 319.921 1144.74 319.119 1145.37 318.428C1146.03 317.737 1146.79 317.187 1147.67 316.776C1148.57 316.365 1149.54 316.16 1150.58 316.16C1151.63 316.16 1152.59 316.365 1153.47 316.776C1154.36 317.187 1155.13 317.737 1155.76 318.428C1156.42 319.119 1156.92 319.921 1157.27 320.836C1157.65 321.751 1157.83 322.721 1157.83 323.748C1157.83 324.756 1157.65 325.717 1157.27 326.632C1156.92 327.547 1156.42 328.349 1155.76 329.04C1155.13 329.731 1154.36 330.281 1153.47 330.692C1152.59 331.084 1151.63 331.28 1150.58 331.28ZM1145.29 323.776C1145.29 324.597 1145.42 325.363 1145.68 326.072C1145.96 326.763 1146.34 327.379 1146.8 327.92C1147.29 328.443 1147.85 328.853 1148.48 329.152C1149.14 329.451 1149.83 329.6 1150.55 329.6C1151.28 329.6 1151.96 329.451 1152.6 329.152C1153.25 328.835 1153.82 328.415 1154.31 327.892C1154.79 327.351 1155.17 326.725 1155.45 326.016C1155.73 325.307 1155.87 324.541 1155.87 323.72C1155.87 322.917 1155.73 322.161 1155.45 321.452C1155.17 320.724 1154.79 320.099 1154.31 319.576C1153.82 319.035 1153.26 318.615 1152.63 318.316C1151.99 317.999 1151.31 317.84 1150.58 317.84C1149.85 317.84 1149.16 317.999 1148.51 318.316C1147.88 318.615 1147.32 319.035 1146.83 319.576C1146.36 320.117 1145.99 320.752 1145.71 321.48C1145.43 322.189 1145.29 322.955 1145.29 323.776ZM1168.21 318.092C1166.93 318.129 1165.81 318.484 1164.85 319.156C1163.9 319.828 1163.23 320.752 1162.84 321.928V331H1160.93V316.412H1162.73V319.912C1163.23 318.885 1163.89 318.036 1164.71 317.364C1165.54 316.673 1166.42 316.328 1167.37 316.328C1167.54 316.328 1167.7 316.328 1167.85 316.328C1168 316.328 1168.12 316.337 1168.21 316.356V318.092ZM1177.76 331V311.12H1184.48C1186.07 311.12 1187.46 311.381 1188.65 311.904C1189.85 312.427 1190.84 313.136 1191.62 314.032C1192.42 314.928 1193.02 315.983 1193.41 317.196C1193.81 318.391 1194 319.669 1194 321.032C1194 322.544 1193.78 323.916 1193.33 325.148C1192.88 326.361 1192.25 327.407 1191.43 328.284C1190.6 329.143 1189.61 329.815 1188.43 330.3C1187.25 330.767 1185.94 331 1184.48 331H1177.76ZM1192.04 321.032C1192.04 319.837 1191.87 318.745 1191.54 317.756C1191.2 316.748 1190.71 315.88 1190.05 315.152C1189.42 314.424 1188.64 313.864 1187.7 313.472C1186.77 313.061 1185.7 312.856 1184.48 312.856H1179.69V329.264H1184.48C1185.71 329.264 1186.8 329.059 1187.73 328.648C1188.68 328.219 1189.48 327.64 1190.11 326.912C1190.74 326.165 1191.22 325.297 1191.54 324.308C1191.87 323.3 1192.04 322.208 1192.04 321.032ZM1203.77 331.28C1202.7 331.28 1201.72 331.084 1200.83 330.692C1199.93 330.281 1199.16 329.731 1198.5 329.04C1197.85 328.331 1197.34 327.519 1196.96 326.604C1196.61 325.689 1196.43 324.709 1196.43 323.664C1196.43 322.637 1196.61 321.676 1196.96 320.78C1197.34 319.865 1197.85 319.072 1198.5 318.4C1199.16 317.709 1199.92 317.168 1200.8 316.776C1201.7 316.365 1202.68 316.16 1203.74 316.16C1204.8 316.16 1205.77 316.365 1206.65 316.776C1207.55 317.168 1208.31 317.709 1208.95 318.4C1209.58 319.091 1210.08 319.884 1210.43 320.78C1210.79 321.676 1210.96 322.628 1210.96 323.636C1210.96 323.785 1210.95 323.935 1210.94 324.084C1210.94 324.233 1210.93 324.336 1210.91 324.392H1198.45C1198.5 325.176 1198.68 325.904 1198.98 326.576C1199.3 327.229 1199.69 327.799 1200.16 328.284C1200.64 328.769 1201.19 329.152 1201.81 329.432C1202.44 329.693 1203.11 329.824 1203.82 329.824C1204.31 329.824 1204.79 329.759 1205.25 329.628C1205.72 329.497 1206.15 329.32 1206.54 329.096C1206.93 328.872 1207.28 328.601 1207.58 328.284C1207.89 327.948 1208.14 327.584 1208.3 327.192L1209.96 327.64C1209.73 328.181 1209.41 328.676 1209 329.124C1208.59 329.553 1208.12 329.936 1207.58 330.272C1207.03 330.589 1206.44 330.832 1205.78 331C1205.13 331.187 1204.46 331.28 1203.77 331.28ZM1209.14 322.936C1209.09 322.152 1208.9 321.443 1208.58 320.808C1208.29 320.155 1207.89 319.595 1207.41 319.128C1206.94 318.661 1206.39 318.297 1205.76 318.036C1205.12 317.775 1204.45 317.644 1203.74 317.644C1203.03 317.644 1202.36 317.775 1201.72 318.036C1201.09 318.297 1200.53 318.661 1200.04 319.128C1199.58 319.595 1199.19 320.155 1198.9 320.808C1198.62 321.461 1198.45 322.171 1198.39 322.936H1209.14ZM1213.9 310.56H1215.81V327.696C1215.81 328.237 1215.95 328.667 1216.25 328.984C1216.55 329.283 1216.97 329.432 1217.51 329.432C1217.72 329.432 1217.96 329.404 1218.24 329.348C1218.52 329.292 1218.78 329.217 1219.03 329.124L1219.36 330.664C1219.01 330.813 1218.57 330.935 1218.05 331.028C1217.54 331.121 1217.1 331.168 1216.73 331.168C1215.85 331.168 1215.16 330.925 1214.66 330.44C1214.15 329.936 1213.9 329.236 1213.9 328.34V310.56ZM1221.2 331V316.412H1223.1V331H1221.2ZM1221.2 313.36V310.56H1223.1V313.36H1221.2ZM1231.56 331L1225.62 316.412H1227.61L1232.62 329.236L1237.66 316.412H1239.51L1233.57 331H1231.56ZM1248.42 331.28C1247.36 331.28 1246.38 331.084 1245.48 330.692C1244.58 330.281 1243.81 329.731 1243.16 329.04C1242.5 328.331 1241.99 327.519 1241.62 326.604C1241.26 325.689 1241.08 324.709 1241.08 323.664C1241.08 322.637 1241.26 321.676 1241.62 320.78C1241.99 319.865 1242.5 319.072 1243.16 318.4C1243.81 317.709 1244.57 317.168 1245.45 316.776C1246.35 316.365 1247.33 316.16 1248.39 316.16C1249.46 316.16 1250.43 316.365 1251.3 316.776C1252.2 317.168 1252.97 317.709 1253.6 318.4C1254.23 319.091 1254.73 319.884 1255.08 320.78C1255.44 321.676 1255.62 322.628 1255.62 323.636C1255.62 323.785 1255.61 323.935 1255.59 324.084C1255.59 324.233 1255.58 324.336 1255.56 324.392H1243.1C1243.16 325.176 1243.33 325.904 1243.63 326.576C1243.95 327.229 1244.34 327.799 1244.81 328.284C1245.29 328.769 1245.84 329.152 1246.46 329.432C1247.09 329.693 1247.77 329.824 1248.48 329.824C1248.96 329.824 1249.44 329.759 1249.9 329.628C1250.37 329.497 1250.8 329.32 1251.19 329.096C1251.58 328.872 1251.93 328.601 1252.23 328.284C1252.55 327.948 1252.79 327.584 1252.96 327.192L1254.61 327.64C1254.38 328.181 1254.07 328.676 1253.66 329.124C1253.25 329.553 1252.77 329.936 1252.23 330.272C1251.69 330.589 1251.09 330.832 1250.44 331C1249.78 331.187 1249.11 331.28 1248.42 331.28ZM1253.8 322.936C1253.74 322.152 1253.55 321.443 1253.24 320.808C1252.94 320.155 1252.55 319.595 1252.06 319.128C1251.59 318.661 1251.04 318.297 1250.41 318.036C1249.77 317.775 1249.1 317.644 1248.39 317.644C1247.68 317.644 1247.01 317.775 1246.38 318.036C1245.74 318.297 1245.18 318.661 1244.7 319.128C1244.23 319.595 1243.85 320.155 1243.55 320.808C1243.27 321.461 1243.1 322.171 1243.04 322.936H1253.8ZM1265.75 318.092C1264.46 318.129 1263.34 318.484 1262.39 319.156C1261.44 319.828 1260.77 320.752 1260.37 321.928V331H1258.47V316.412H1260.26V319.912C1260.77 318.885 1261.43 318.036 1262.25 317.364C1263.07 316.673 1263.96 316.328 1264.91 316.328C1265.08 316.328 1265.24 316.328 1265.39 316.328C1265.54 316.328 1265.66 316.337 1265.75 316.356V318.092ZM1269.13 335.508C1269.22 335.527 1269.31 335.536 1269.41 335.536C1269.5 335.555 1269.59 335.564 1269.69 335.564C1269.87 335.564 1270.07 335.545 1270.27 335.508C1270.5 335.471 1270.66 335.433 1270.75 335.396C1270.84 335.359 1270.94 335.275 1271.03 335.144C1271.14 335.032 1271.27 334.817 1271.42 334.5C1271.59 334.201 1271.8 333.772 1272.04 333.212C1272.28 332.671 1272.59 331.933 1272.96 331L1266.61 316.412H1268.59L1274 329.236L1278.98 316.412H1280.8L1273.21 335.228C1272.93 335.919 1272.55 336.432 1272.07 336.768C1271.6 337.104 1270.94 337.272 1270.08 337.272C1269.72 337.272 1269.41 337.244 1269.13 337.188V335.508Z" fill="#6B6B6A"/>
<path d="M1490.08 331V311.12H1496.8C1498.39 311.12 1499.78 311.381 1500.97 311.904C1502.17 312.427 1503.16 313.136 1503.94 314.032C1504.74 314.928 1505.34 315.983 1505.73 317.196C1506.12 318.391 1506.32 319.669 1506.32 321.032C1506.32 322.544 1506.1 323.916 1505.65 325.148C1505.2 326.361 1504.57 327.407 1503.74 328.284C1502.92 329.143 1501.92 329.815 1500.75 330.3C1499.57 330.767 1498.26 331 1496.8 331H1490.08ZM1504.36 321.032C1504.36 319.837 1504.19 318.745 1503.86 317.756C1503.52 316.748 1503.03 315.88 1502.37 315.152C1501.74 314.424 1500.95 313.864 1500.02 313.472C1499.09 313.061 1498.01 312.856 1496.8 312.856H1492.01V329.264H1496.8C1498.03 329.264 1499.12 329.059 1500.05 328.648C1501 328.219 1501.79 327.64 1502.43 326.912C1503.06 326.165 1503.54 325.297 1503.86 324.308C1504.19 323.3 1504.36 322.208 1504.36 321.032ZM1516.09 331.28C1515.02 331.28 1514.04 331.084 1513.15 330.692C1512.25 330.281 1511.48 329.731 1510.82 329.04C1510.17 328.331 1509.66 327.519 1509.28 326.604C1508.93 325.689 1508.75 324.709 1508.75 323.664C1508.75 322.637 1508.93 321.676 1509.28 320.78C1509.66 319.865 1510.17 319.072 1510.82 318.4C1511.48 317.709 1512.24 317.168 1513.12 316.776C1514.01 316.365 1514.99 316.16 1516.06 316.16C1517.12 316.16 1518.09 316.365 1518.97 316.776C1519.87 317.168 1520.63 317.709 1521.27 318.4C1521.9 319.091 1522.4 319.884 1522.75 320.78C1523.1 321.676 1523.28 322.628 1523.28 323.636C1523.28 323.785 1523.27 323.935 1523.25 324.084C1523.25 324.233 1523.24 324.336 1523.23 324.392H1510.77C1510.82 325.176 1511 325.904 1511.3 326.576C1511.62 327.229 1512.01 327.799 1512.47 328.284C1512.96 328.769 1513.51 329.152 1514.13 329.432C1514.76 329.693 1515.43 329.824 1516.14 329.824C1516.63 329.824 1517.1 329.759 1517.57 329.628C1518.04 329.497 1518.47 329.32 1518.86 329.096C1519.25 328.872 1519.6 328.601 1519.89 328.284C1520.21 327.948 1520.45 327.584 1520.62 327.192L1522.27 327.64C1522.05 328.181 1521.73 328.676 1521.32 329.124C1520.91 329.553 1520.44 329.936 1519.89 330.272C1519.35 330.589 1518.76 330.832 1518.1 331C1517.45 331.187 1516.78 331.28 1516.09 331.28ZM1521.46 322.936C1521.41 322.152 1521.22 321.443 1520.9 320.808C1520.6 320.155 1520.21 319.595 1519.73 319.128C1519.26 318.661 1518.71 318.297 1518.07 318.036C1517.44 317.775 1516.77 317.644 1516.06 317.644C1515.35 317.644 1514.68 317.775 1514.04 318.036C1513.41 318.297 1512.85 318.661 1512.36 319.128C1511.9 319.595 1511.51 320.155 1511.21 320.808C1510.93 321.461 1510.77 322.171 1510.71 322.936H1521.46ZM1526.22 310.56H1528.12V327.696C1528.12 328.237 1528.27 328.667 1528.57 328.984C1528.87 329.283 1529.29 329.432 1529.83 329.432C1530.04 329.432 1530.28 329.404 1530.56 329.348C1530.84 329.292 1531.1 329.217 1531.34 329.124L1531.68 330.664C1531.33 330.813 1530.89 330.935 1530.36 331.028C1529.86 331.121 1529.42 331.168 1529.05 331.168C1528.17 331.168 1527.48 330.925 1526.98 330.44C1526.47 329.936 1526.22 329.236 1526.22 328.34V310.56ZM1533.52 331V316.412H1535.42V331H1533.52ZM1533.52 313.36V310.56H1535.42V313.36H1533.52ZM1543.87 331L1537.94 316.412H1539.93L1544.94 329.236L1549.98 316.412H1551.83L1545.89 331H1543.87ZM1560.74 331.28C1559.67 331.28 1558.69 331.084 1557.8 330.692C1556.9 330.281 1556.13 329.731 1555.47 329.04C1554.82 328.331 1554.31 327.519 1553.93 326.604C1553.58 325.689 1553.4 324.709 1553.4 323.664C1553.4 322.637 1553.58 321.676 1553.93 320.78C1554.31 319.865 1554.82 319.072 1555.47 318.4C1556.13 317.709 1556.89 317.168 1557.77 316.776C1558.67 316.365 1559.65 316.16 1560.71 316.16C1561.77 316.16 1562.75 316.365 1563.62 316.776C1564.52 317.168 1565.28 317.709 1565.92 318.4C1566.55 319.091 1567.05 319.884 1567.4 320.78C1567.76 321.676 1567.93 322.628 1567.93 323.636C1567.93 323.785 1567.93 323.935 1567.91 324.084C1567.91 324.233 1567.9 324.336 1567.88 324.392H1555.42C1555.47 325.176 1555.65 325.904 1555.95 326.576C1556.27 327.229 1556.66 327.799 1557.13 328.284C1557.61 328.769 1558.16 329.152 1558.78 329.432C1559.41 329.693 1560.09 329.824 1560.79 329.824C1561.28 329.824 1561.76 329.759 1562.22 329.628C1562.69 329.497 1563.12 329.32 1563.51 329.096C1563.9 328.872 1564.25 328.601 1564.55 328.284C1564.86 327.948 1565.11 327.584 1565.27 327.192L1566.93 327.64C1566.7 328.181 1566.39 328.676 1565.97 329.124C1565.56 329.553 1565.09 329.936 1564.55 330.272C1564.01 330.589 1563.41 330.832 1562.75 331C1562.1 331.187 1561.43 331.28 1560.74 331.28ZM1566.11 322.936C1566.06 322.152 1565.87 321.443 1565.55 320.808C1565.26 320.155 1564.86 319.595 1564.38 319.128C1563.91 318.661 1563.36 318.297 1562.73 318.036C1562.09 317.775 1561.42 317.644 1560.71 317.644C1560 317.644 1559.33 317.775 1558.69 318.036C1558.06 318.297 1557.5 318.661 1557.01 319.128C1556.55 319.595 1556.17 320.155 1555.87 320.808C1555.59 321.461 1555.42 322.171 1555.36 322.936H1566.11ZM1578.07 318.092C1576.78 318.129 1575.66 318.484 1574.71 319.156C1573.76 319.828 1573.08 320.752 1572.69 321.928V331H1570.79V316.412H1572.58V319.912C1573.08 318.885 1573.75 318.036 1574.57 317.364C1575.39 316.673 1576.28 316.328 1577.23 316.328C1577.4 316.328 1577.55 316.328 1577.7 316.328C1577.85 316.328 1577.97 316.337 1578.07 316.356V318.092ZM1586.99 331.28C1585.92 331.28 1584.94 331.084 1584.05 330.692C1583.15 330.281 1582.38 329.731 1581.72 329.04C1581.07 328.331 1580.56 327.519 1580.18 326.604C1579.83 325.689 1579.65 324.709 1579.65 323.664C1579.65 322.637 1579.83 321.676 1580.18 320.78C1580.56 319.865 1581.07 319.072 1581.72 318.4C1582.38 317.709 1583.14 317.168 1584.02 316.776C1584.92 316.365 1585.9 316.16 1586.96 316.16C1588.02 316.16 1589 316.365 1589.87 316.776C1590.77 317.168 1591.53 317.709 1592.17 318.4C1592.8 319.091 1593.3 319.884 1593.65 320.78C1594.01 321.676 1594.18 322.628 1594.18 323.636C1594.18 323.785 1594.18 323.935 1594.16 324.084C1594.16 324.233 1594.15 324.336 1594.13 324.392H1581.67C1581.72 325.176 1581.9 325.904 1582.2 326.576C1582.52 327.229 1582.91 327.799 1583.38 328.284C1583.86 328.769 1584.41 329.152 1585.03 329.432C1585.66 329.693 1586.34 329.824 1587.04 329.824C1587.53 329.824 1588.01 329.759 1588.47 329.628C1588.94 329.497 1589.37 329.32 1589.76 329.096C1590.15 328.872 1590.5 328.601 1590.8 328.284C1591.11 327.948 1591.36 327.584 1591.52 327.192L1593.18 327.64C1592.95 328.181 1592.64 328.676 1592.22 329.124C1591.81 329.553 1591.34 329.936 1590.8 330.272C1590.26 330.589 1589.66 330.832 1589 331C1588.35 331.187 1587.68 331.28 1586.99 331.28ZM1592.36 322.936C1592.31 322.152 1592.12 321.443 1591.8 320.808C1591.51 320.155 1591.11 319.595 1590.63 319.128C1590.16 318.661 1589.61 318.297 1588.98 318.036C1588.34 317.775 1587.67 317.644 1586.96 317.644C1586.25 317.644 1585.58 317.775 1584.94 318.036C1584.31 318.297 1583.75 318.661 1583.26 319.128C1582.8 319.595 1582.42 320.155 1582.12 320.808C1581.84 321.461 1581.67 322.171 1581.61 322.936H1592.36ZM1603.09 331.28C1602.08 331.28 1601.14 331.075 1600.29 330.664C1599.43 330.235 1598.68 329.675 1598.05 328.984C1597.43 328.293 1596.94 327.5 1596.59 326.604C1596.25 325.689 1596.09 324.737 1596.09 323.748C1596.09 322.721 1596.25 321.751 1596.59 320.836C1596.93 319.903 1597.38 319.091 1597.96 318.4C1598.56 317.709 1599.26 317.168 1600.06 316.776C1600.88 316.365 1601.78 316.16 1602.75 316.16C1603.98 316.16 1605.07 316.487 1606.03 317.14C1606.98 317.775 1607.73 318.549 1608.29 319.464V310.56H1610.2V328.536C1610.2 329.059 1610.42 329.32 1610.87 329.32V331C1610.55 331.056 1610.3 331.084 1610.11 331.084C1609.65 331.084 1609.26 330.953 1608.97 330.692C1608.67 330.412 1608.52 330.085 1608.52 329.712V328.172C1607.92 329.124 1607.13 329.88 1606.14 330.44C1605.17 331 1604.15 331.28 1603.09 331.28ZM1603.48 329.6C1603.96 329.6 1604.47 329.507 1604.99 329.32C1605.53 329.133 1606.03 328.881 1606.47 328.564C1606.94 328.228 1607.34 327.845 1607.68 327.416C1608.01 326.968 1608.22 326.492 1608.29 325.988V321.48C1608.11 320.976 1607.83 320.509 1607.45 320.08C1607.1 319.632 1606.69 319.24 1606.22 318.904C1605.77 318.568 1605.29 318.307 1604.77 318.12C1604.26 317.933 1603.76 317.84 1603.25 317.84C1602.47 317.84 1601.75 318.008 1601.1 318.344C1600.46 318.68 1599.92 319.128 1599.47 319.688C1599.03 320.229 1598.67 320.855 1598.41 321.564C1598.17 322.273 1598.05 323.001 1598.05 323.748C1598.05 324.532 1598.19 325.279 1598.47 325.988C1598.75 326.697 1599.13 327.323 1599.61 327.864C1600.1 328.387 1600.67 328.807 1601.32 329.124C1601.99 329.441 1602.71 329.6 1603.48 329.6Z" fill="#6B6B6A"/>
<circle cx="71.4737" cy="248.621" r="11.6998" fill="#01942A"/>
<circle cx="440.993" cy="248.621" r="11.6998" fill="#01942A"/>
<circle cx="810.512" cy="248.621" r="11.6998" fill="#01942A"/>
<circle cx="1180.03" cy="248.621" r="11.1998" stroke="#C4C4C4"/>
<circle cx="1549.55" cy="248.621" r="11.1998" stroke="#C4C4C4"/>
<line x1="77.3242" y1="248.121" x2="429.294" y2="248.121" stroke="#01942A"/>
<line x1="452.693" y1="248.121" x2="798.812" y2="248.121" stroke="#01942A"/>
<line x1="822.212" y1="248.121" x2="1168.33" y2="248.121" stroke="#C4C4C4"/>
<line x1="1191.73" y1="248.121" x2="1537.85" y2="248.121" stroke="#C4C4C4"/>
<path d="M846.489 20.7672C846.392 17.4522 844.637 15.3072 841.614 15.0147C841.517 15.0147 841.517 15.0147 841.419 15.0147L821.725 14.6248H821.53C818.117 14.6248 815.777 15.8922 814.412 17.0622L814.315 17.1597L775.9 55.6716C773.95 57.6216 773.95 60.9365 775.9 62.8865L798.618 85.6037C799.593 86.5786 800.86 87.0661 802.225 87.0661C803.59 87.0661 804.858 86.5786 805.832 85.6037L824.747 66.7864C824.942 66.5914 825.137 66.3965 825.332 66.104L843.759 47.6767C844.929 46.3118 846.977 43.3868 846.879 39.3894L846.489 20.7672ZM841.127 45.1418L822.602 63.6665C822.505 63.764 822.407 63.8615 822.407 63.959C822.31 64.0565 822.31 64.154 822.212 64.2515L803.298 83.0687C802.713 83.6537 801.738 83.6537 801.153 83.0687L778.435 60.3515C777.85 59.7666 777.85 58.7916 778.435 58.2066L816.85 19.7922C817.727 19.1097 819.287 18.2322 821.53 18.2322L841.322 18.6222C842.102 18.7197 842.784 19.1097 842.882 20.8647L843.272 39.4869C843.272 42.2168 841.907 44.2643 841.127 45.1418ZM830.207 24.3746C826.405 24.3746 823.382 27.3971 823.382 31.1995C823.382 35.0019 826.405 38.0244 830.207 38.0244C834.01 38.0244 837.032 35.0019 837.032 31.1995C837.032 27.3971 834.01 24.3746 830.207 24.3746ZM830.207 34.4169C828.452 34.4169 826.99 32.9545 826.99 31.1995C826.99 29.4445 828.452 27.982 830.207 27.982C831.962 27.982 833.425 29.4445 833.425 31.1995C833.425 32.9545 831.962 34.4169 830.207 34.4169ZM817.337 52.1617C818.02 52.8442 818.02 54.0141 817.337 54.6966L802.225 69.8089C801.835 70.1989 801.445 70.2964 800.958 70.2964C800.47 70.2964 800.08 70.1014 799.69 69.8089C799.008 69.1264 799.008 67.9564 799.69 67.2739L814.802 52.1617C815.485 51.4792 816.655 51.4792 817.337 52.1617ZM815.387 41.6318L794.718 62.3015C794.328 62.6915 793.938 62.789 793.45 62.789C792.963 62.789 792.573 62.594 792.183 62.3015C791.5 61.619 791.5 60.449 792.183 59.7666L812.852 39.0969C813.535 38.4144 814.705 38.4144 815.387 39.0969C816.07 39.7794 816.07 40.8518 815.387 41.6318Z" fill="#01942A"/>
<path d="M476.224 29.8983L442.245 13.8093C441.797 13.5968 441.276 13.5968 440.828 13.8093L406.848 29.8983C406.266 30.1739 405.894 30.7635 405.894 31.4108V83.3304C405.894 84.2539 406.639 85.0025 407.558 85.0025H419.203H425.382H441.536H457.691H463.87H475.515C476.434 85.0025 477.178 84.2539 477.178 83.3304V31.4108C477.179 30.7635 476.807 30.1744 476.224 29.8983ZM439.962 52.5275H443.054V55.158H439.962V52.5275ZM438.773 57.5472H444.242C444.899 57.5472 445.43 57.0126 445.43 56.3528V52.528H447.95V65.4218H441.536H435.122V52.5275H437.585V56.3523C437.585 57.0121 438.117 57.5472 438.773 57.5472ZM448.039 68.7655H449.614H451.131V71.396H448.038V68.7655H448.039ZM431.884 68.7655H433.459H434.976V71.396H431.884V68.7655H431.884ZM430.696 73.7847H436.165C436.821 73.7847 437.353 73.2501 437.353 72.5903V68.7655H439.873V81.6583H427.045V68.7655H429.508V72.5903C429.508 73.2501 430.04 73.7847 430.696 73.7847ZM443.2 81.6583V68.7655H445.662V72.5903C445.662 73.2501 446.194 73.7847 446.851 73.7847H452.319C452.976 73.7847 453.508 73.2501 453.508 72.5903V68.7655H456.028V81.6583H443.2ZM459.355 81.6583V67.0934C459.355 66.1699 458.61 65.4213 457.691 65.4213H451.278V50.8554C451.278 49.9319 450.533 49.1833 449.614 49.1833H433.459C432.54 49.1833 431.795 49.9319 431.795 50.8554V65.4213H425.382C424.463 65.4213 423.718 66.1699 423.718 67.0934V81.6583H420.866V46.6623H462.207V81.6583H459.355ZM418.194 43.3181V39.5602H464.878V43.3181H463.87H419.203H418.194ZM473.852 81.6583H465.534V46.6623H466.542C467.461 46.6623 468.206 45.9137 468.206 44.9902V37.8881C468.206 36.9646 467.461 36.216 466.542 36.216H416.531C415.612 36.216 414.867 36.9646 414.867 37.8881V44.9902C414.867 45.9137 415.612 46.6623 416.531 46.6623H417.539V81.6583H409.221V32.4719L441.536 17.1703L473.851 32.4719V81.6583H473.852Z" fill="#01942A"/>
<path d="M435.095 26.6433V30.8532C435.095 31.513 435.627 32.0476 436.283 32.0476H446.602C447.258 32.0476 447.79 31.513 447.79 30.8532V26.6433C447.79 25.9836 447.258 25.449 446.602 25.449H436.283C435.628 25.449 435.095 25.984 435.095 26.6433ZM437.472 27.8377H445.414V29.6588H437.472V27.8377Z" fill="#01942A"/>
<path d="M1141.23 35.2945H1154.78C1155.95 35.2945 1156.92 34.417 1156.92 33.3445C1156.92 32.272 1155.95 31.3945 1154.78 31.3945H1141.23C1140.06 31.3945 1139.08 32.272 1139.08 33.3445C1139.08 34.417 1140.06 35.2945 1141.23 35.2945Z" fill="#C4C4C4"/>
<path d="M1156.92 60.2542C1156.92 59.1817 1155.95 58.3042 1154.78 58.3042H1141.23C1140.06 58.3042 1139.08 59.1817 1139.08 60.2542C1139.08 61.3267 1140.06 62.2041 1141.23 62.2041H1154.78C1155.95 62.2041 1156.92 61.3267 1156.92 60.2542Z" fill="#C4C4C4"/>
<path d="M1156.92 46.7993C1156.92 45.7269 1155.95 44.8494 1154.78 44.8494H1141.23C1140.06 44.8494 1139.08 45.7269 1139.08 46.7993C1139.08 47.8718 1140.06 48.7493 1141.23 48.7493H1154.78C1155.95 48.7493 1156.92 47.8718 1156.92 46.7993Z" fill="#C4C4C4"/>
<path d="M1224.78 25.8371L1224.69 25.6422C1224.69 25.5447 1224.59 25.4472 1224.49 25.3497C1224.49 25.2522 1224.39 25.2522 1224.39 25.1547C1224.3 25.0572 1224.3 24.9597 1224.2 24.8622L1224 24.7647L1223.91 24.6672L1223.71 24.5697L1223.61 24.4722L1194.36 11.7974C1193.88 11.6024 1193.29 11.6024 1192.8 11.7974L1163.55 24.4722L1163.46 24.5697L1163.26 24.6672L1163.16 24.7647C1163.07 24.7647 1163.07 24.8622 1162.97 24.8622C1162.87 24.9597 1162.77 24.9597 1162.77 25.0572C1162.77 25.0572 1162.68 25.1547 1162.68 25.2522C1162.58 25.3497 1162.58 25.4472 1162.58 25.5447C1162.58 25.5447 1162.58 25.6422 1162.48 25.7397C1162.48 25.9346 1162.38 26.1296 1162.38 26.2271L1162.29 67.1765C1162.29 67.3715 1162.29 67.469 1162.38 67.664V67.7615C1162.48 67.859 1162.48 68.054 1162.58 68.1515C1162.68 68.249 1162.77 68.444 1162.87 68.5415L1162.97 68.639C1163.07 68.7365 1163.26 68.834 1163.36 68.9315L1192.61 81.6063C1192.8 81.7038 1193.1 81.8013 1193.29 81.8013H1193.68C1193.97 81.8013 1194.17 81.7038 1194.46 81.6063L1223.71 68.9315C1223.91 68.834 1224 68.7365 1224.1 68.639L1224.2 68.5415C1224.3 68.444 1224.49 68.3465 1224.49 68.1515C1224.59 68.054 1224.69 67.859 1224.69 67.7615V67.664C1224.78 67.469 1224.78 67.3715 1224.78 67.1765V26.3246C1224.88 26.1296 1224.88 25.9346 1224.78 25.8371ZM1191.73 77.0238L1166.28 66.0065V29.3471L1178.08 34.417V46.5068C1178.08 47.6768 1178.96 48.6518 1180.03 48.6518C1181.1 48.6518 1181.98 47.6768 1181.98 46.5068V36.172L1191.73 40.4619V77.0238ZM1193.39 36.952L1183.25 32.467L1193.19 28.1771C1194.27 27.6896 1194.75 26.5196 1194.36 25.5447C1193.97 24.5697 1192.71 24.0822 1191.63 24.5697L1179.15 29.9321C1178.86 30.0296 1178.67 30.2246 1178.47 30.4196L1169.21 26.3246L1193.68 15.7948L1217.96 26.3246L1193.39 36.952ZM1220.98 66.0065L1212.21 69.809V58.0116C1212.21 56.8417 1211.33 55.8667 1210.26 55.8667C1209.18 55.8667 1208.31 56.8417 1208.31 58.0116V71.5639L1195.63 77.0238V40.1694L1220.98 29.2496V66.0065Z" fill="#C4C4C4"/>
<path d="M1526.28 45.2515C1526.63 45.7629 1527.19 46.0851 1527.81 46.122C1527.85 46.1243 1527.89 46.1254 1527.93 46.1254C1528.51 46.1254 1529.06 45.8781 1529.44 45.4429L1544.35 28.4001C1545.08 27.5688 1544.99 26.3056 1544.16 25.5794C1543.33 24.8533 1542.07 24.9361 1541.34 25.7674L1528.13 40.8644L1524.26 35.1861C1523.64 34.2731 1522.4 34.037 1521.49 34.658C1520.57 35.279 1520.34 36.5232 1520.96 37.4362L1526.28 45.2515Z" fill="#C4C4C4"/>
<path d="M1490.11 35.4065L1497.89 35.4624V42.3502L1491.9 42.3547C1490.79 42.3547 1489.9 43.2509 1489.9 44.3553C1489.9 45.4585 1490.8 46.3525 1491.9 46.3525C1491.9 46.3525 1491.9 46.3525 1491.9 46.3525L1497.89 46.3491V63.4165C1497.89 64.5208 1498.79 65.4159 1499.89 65.4159H1510.5C1511 69.6956 1514.65 73.0276 1519.06 73.0276C1523.47 73.0276 1527.12 69.6956 1527.62 65.4159H1554.43H1561.18C1562.08 69.2033 1565.5 72.0296 1569.56 72.0296C1573.62 72.0296 1577.03 69.2044 1577.93 65.4159H1584.68C1585.78 65.4159 1586.68 64.5208 1586.68 63.4165V43.7108C1586.68 43.6851 1586.68 43.6593 1586.68 43.6325C1586.68 43.609 1586.68 43.5877 1586.68 43.5642V43.0585C1586.68 42.8045 1586.63 42.5539 1586.54 42.3189L1581.67 30.0862C1581.37 29.3265 1580.63 28.8275 1579.81 28.8275H1579.26H1577.01V23.1246C1577.01 22.1556 1576.31 21.3265 1575.36 21.1565L1556.44 17.7864V15.6493C1556.44 14.545 1555.54 13.6499 1554.44 13.6499H1499.89C1498.79 13.6499 1497.89 14.545 1497.89 15.6493V31.4647L1490.14 31.4087C1490.14 31.4087 1490.13 31.4087 1490.13 31.4087C1489.03 31.4087 1488.13 32.2949 1488.13 33.3936C1488.12 34.4968 1489.01 35.3986 1490.11 35.4065ZM1519.06 69.0287C1516.52 69.0287 1514.44 66.9555 1514.44 64.4089C1514.44 64.165 1514.46 63.9255 1514.5 63.6928C1514.52 63.5765 1514.54 63.4601 1514.57 63.346C1514.57 63.3236 1514.58 63.3023 1514.58 63.28C1514.61 63.1614 1514.65 63.045 1514.69 62.9309C1514.69 62.9152 1514.7 62.8995 1514.7 62.8839C1514.75 62.7619 1514.79 62.6422 1514.85 62.5247C1514.85 62.5225 1514.85 62.5202 1514.85 62.518C1515.52 61.0277 1516.97 59.967 1518.63 59.8092C1518.64 59.8092 1518.65 59.8081 1518.66 59.8081C1518.79 59.7958 1518.93 59.7891 1519.06 59.7891C1519.2 59.7891 1519.33 59.7958 1519.46 59.8081C1519.47 59.8081 1519.48 59.8092 1519.49 59.8092C1521.15 59.967 1522.6 61.0277 1523.27 62.518C1523.28 62.5191 1523.28 62.5214 1523.28 62.5247C1523.33 62.6411 1523.38 62.7619 1523.42 62.8839C1523.43 62.9007 1523.43 62.9152 1523.44 62.9309C1523.48 63.045 1523.51 63.1614 1523.54 63.28C1523.55 63.3023 1523.55 63.3236 1523.56 63.346C1523.58 63.4601 1523.61 63.5753 1523.63 63.6928C1523.66 63.9255 1523.68 64.165 1523.68 64.4089C1523.68 66.9555 1521.61 69.0287 1519.06 69.0287ZM1569.56 68.0296C1567.01 68.0296 1564.94 65.9597 1564.94 63.4153C1564.94 60.8677 1567.01 58.7955 1569.56 58.7955C1572.11 58.7955 1574.18 60.8677 1574.18 63.4153C1574.18 65.9597 1572.11 68.0296 1569.56 68.0296ZM1577.94 61.417C1577.93 61.3879 1577.92 61.3588 1577.92 61.3286C1577.9 61.2805 1577.89 61.2324 1577.88 61.1843C1577.86 61.1026 1577.83 61.0209 1577.81 60.9393C1577.79 60.8923 1577.78 60.8453 1577.76 60.7983C1577.74 60.7133 1577.71 60.6304 1577.68 60.5465C1577.66 60.5051 1577.65 60.4626 1577.63 60.4223C1577.6 60.3205 1577.56 60.2198 1577.52 60.1202C1577.51 60.099 1577.5 60.0777 1577.49 60.0565C1577.44 59.9345 1577.39 59.8148 1577.33 59.6973C1577.31 59.6682 1577.3 59.6402 1577.28 59.61C1577.24 59.5216 1577.2 59.4355 1577.15 59.3482C1577.13 59.3079 1577.11 59.2688 1577.08 59.2285C1577.04 59.1547 1577 59.0808 1576.96 59.007C1576.93 58.9656 1576.91 58.923 1576.88 58.8816C1576.84 58.8112 1576.79 58.7418 1576.75 58.6724C1576.72 58.6321 1576.69 58.5919 1576.66 58.5527C1576.62 58.4811 1576.57 58.4106 1576.51 58.3401C1576.49 58.3065 1576.46 58.2707 1576.44 58.2372C1576.37 58.1499 1576.3 58.0637 1576.24 57.9787C1576.22 57.963 1576.21 57.9474 1576.2 57.9328C1576.12 57.8333 1576.03 57.7359 1575.94 57.6386C1575.92 57.6128 1575.9 57.5882 1575.87 57.5625C1575.81 57.4931 1575.74 57.4249 1575.68 57.3577C1575.64 57.3253 1575.61 57.2928 1575.58 57.2604C1575.52 57.2022 1575.46 57.144 1575.4 57.0881C1575.36 57.0545 1575.32 57.021 1575.29 56.9885C1575.23 56.9337 1575.16 56.88 1575.1 56.8274C1575.06 56.7961 1575.03 56.7647 1574.99 56.7334C1574.92 56.6786 1574.85 56.626 1574.79 56.5723C1574.75 56.5465 1574.72 56.5197 1574.68 56.494C1574.59 56.4257 1574.5 56.3597 1574.4 56.2959C1574.39 56.287 1574.38 56.278 1574.37 56.2702C1574.26 56.1986 1574.15 56.1281 1574.04 56.0598C1574.01 56.0397 1573.97 56.0207 1573.94 56.0005C1573.86 55.9535 1573.78 55.9077 1573.7 55.8629C1573.66 55.8405 1573.62 55.817 1573.58 55.7958C1573.5 55.7566 1573.43 55.7186 1573.36 55.6817C1573.31 55.6593 1573.26 55.6369 1573.22 55.6156C1573.14 55.581 1573.07 55.5463 1572.99 55.5138C1572.95 55.4937 1572.9 55.4747 1572.86 55.4556C1572.78 55.421 1572.69 55.3885 1572.61 55.3583C1572.57 55.3426 1572.53 55.327 1572.49 55.3113C1572.38 55.2699 1572.26 55.2308 1572.14 55.1938C1572.13 55.1905 1572.13 55.1882 1572.12 55.1849C1571.99 55.1457 1571.86 55.1099 1571.73 55.0763C1571.69 55.0663 1571.65 55.0573 1571.61 55.0484C1571.52 55.026 1571.44 55.0047 1571.34 54.9857C1571.3 54.9756 1571.25 54.9656 1571.2 54.9566C1571.11 54.941 1571.03 54.9253 1570.95 54.9119C1570.89 54.9029 1570.84 54.8951 1570.79 54.8884C1570.71 54.8761 1570.62 54.8649 1570.54 54.8559C1570.49 54.8503 1570.43 54.8436 1570.38 54.8391C1570.29 54.8302 1570.2 54.8235 1570.1 54.8179C1570.06 54.8156 1570.02 54.8112 1569.97 54.8089C1569.84 54.8022 1569.7 54.7989 1569.56 54.7989C1569.42 54.7989 1569.28 54.8022 1569.14 54.8089C1569.1 54.8112 1569.06 54.8145 1569.01 54.8179C1568.92 54.8235 1568.83 54.8302 1568.74 54.8391C1568.68 54.8436 1568.63 54.8503 1568.58 54.8559C1568.5 54.8649 1568.41 54.8761 1568.33 54.8884C1568.27 54.8951 1568.22 54.9029 1568.17 54.9119C1568.09 54.9253 1568 54.941 1567.92 54.9577C1567.87 54.9667 1567.82 54.9768 1567.77 54.9868C1567.68 55.0059 1567.59 55.0271 1567.5 55.0495C1567.46 55.0584 1567.42 55.0685 1567.38 55.0775C1567.26 55.111 1567.13 55.1468 1567 55.186C1566.99 55.1882 1566.98 55.1916 1566.98 55.1949C1566.86 55.2319 1566.74 55.271 1566.63 55.3135C1566.59 55.3281 1566.55 55.3438 1566.51 55.3594C1566.42 55.3907 1566.34 55.4232 1566.26 55.4579C1566.21 55.4769 1566.17 55.497 1566.13 55.5161C1566.05 55.5496 1565.97 55.5843 1565.9 55.6179C1565.85 55.6403 1565.81 55.6615 1565.76 55.6839C1565.69 55.7197 1565.61 55.7589 1565.54 55.798C1565.5 55.8204 1565.46 55.8428 1565.41 55.8652C1565.33 55.9099 1565.25 55.9569 1565.18 56.0028C1565.14 56.0218 1565.11 56.0419 1565.08 56.061C1564.97 56.1281 1564.86 56.1986 1564.75 56.2713C1564.74 56.2791 1564.73 56.2892 1564.71 56.297C1564.62 56.3619 1564.53 56.4279 1564.43 56.4962C1564.4 56.5208 1564.37 56.5477 1564.33 56.5734C1564.26 56.6271 1564.19 56.6797 1564.13 56.7356C1564.09 56.7658 1564.05 56.7972 1564.01 56.8285C1563.95 56.8811 1563.89 56.9348 1563.83 56.9907C1563.79 57.0232 1563.76 57.0568 1563.72 57.0892C1563.66 57.1463 1563.6 57.2044 1563.54 57.2626C1563.5 57.2951 1563.47 57.3275 1563.44 57.36C1563.37 57.4271 1563.31 57.4954 1563.24 57.5647C1563.22 57.5905 1563.19 57.6162 1563.17 57.6419C1563.08 57.7382 1563 57.8355 1562.92 57.9362C1562.9 57.9507 1562.89 57.9664 1562.88 57.9821C1562.81 58.0671 1562.74 58.1533 1562.68 58.2416C1562.65 58.2752 1562.63 58.311 1562.6 58.3457C1562.55 58.4162 1562.5 58.4856 1562.45 58.5572C1562.42 58.5975 1562.4 58.6377 1562.37 58.678C1562.32 58.7474 1562.28 58.8167 1562.23 58.8861C1562.21 58.9286 1562.18 58.97 1562.16 59.0114C1562.12 59.0842 1562.07 59.158 1562.03 59.2319C1562.01 59.2721 1561.99 59.3113 1561.97 59.3527C1561.92 59.4377 1561.88 59.525 1561.83 59.6123C1561.82 59.6414 1561.8 59.6716 1561.79 59.7007C1561.73 59.8181 1561.68 59.9379 1561.62 60.0587C1561.61 60.0822 1561.61 60.1057 1561.6 60.1292C1561.56 60.2265 1561.52 60.325 1561.48 60.4246C1561.46 60.4671 1561.45 60.5096 1561.43 60.5521C1561.41 60.6338 1561.38 60.7166 1561.35 60.7994C1561.33 60.8475 1561.32 60.8956 1561.3 60.9426C1561.28 61.0232 1561.26 61.1037 1561.24 61.1843C1561.22 61.2335 1561.21 61.2816 1561.2 61.332C1561.19 61.3611 1561.18 61.3902 1561.17 61.4193H1556.43V32.8252H1564.89V43.6336C1564.89 44.7379 1565.78 45.633 1566.89 45.633H1582.68V61.417H1577.94ZM1581.67 41.6341H1568.89V32.8252H1575.01H1577.94L1581.67 41.6341ZM1573.01 24.7984V28.8275H1566.89H1556.44V21.8468L1573.01 24.7984ZM1501.89 17.6477H1552.44V19.4602V30.8269V61.417H1527.14C1526.05 58.4587 1523.37 56.2646 1520.14 55.8607C1520.11 55.8562 1520.07 55.8528 1520.04 55.8484C1519.97 55.8405 1519.9 55.8338 1519.83 55.8271C1519.76 55.8204 1519.68 55.8148 1519.61 55.8103C1519.56 55.807 1519.51 55.8036 1519.46 55.8014C1519.33 55.7958 1519.19 55.7913 1519.06 55.7913C1518.93 55.7913 1518.8 55.7958 1518.67 55.8014C1518.62 55.8036 1518.57 55.807 1518.51 55.8103C1518.44 55.8148 1518.37 55.8204 1518.3 55.8271C1518.23 55.8327 1518.16 55.8405 1518.08 55.8484C1518.05 55.8517 1518.02 55.8562 1517.99 55.8607C1514.76 56.2646 1512.08 58.4598 1510.98 61.417H1501.89V46.3446L1513.84 46.3357C1514.95 46.3346 1515.84 45.4394 1515.84 44.3351C1515.84 43.2308 1514.94 42.3368 1513.84 42.3368C1513.84 42.3368 1513.84 42.3368 1513.84 42.3368L1501.89 42.3458V35.4915L1509.65 35.5475C1509.66 35.5475 1509.66 35.5475 1509.67 35.5475C1510.76 35.5475 1511.66 34.6613 1511.66 33.5626C1511.67 32.4582 1510.78 31.5564 1509.68 31.5486L1501.89 31.4926V17.6477H1501.89Z" fill="#C4C4C4"/>
<path d="M112.424 54.475L112.255 54.0399L112.199 52.9593H111.596L97.5752 31.9077H81.3936V34.7146H96.0735L108.255 52.9593H85.6039V62.7833H57.5351V52.9593H34.8837L47.0655 34.7146H61.7454V31.9077H45.5638L31.4733 53.0014L30.8698 53.0294V54.1662L30.7295 54.5171L30.8698 54.7136V81.8841C30.8698 84.5085 33.0031 86.6417 35.6275 86.6417H107.526C110.15 86.6417 112.269 84.5085 112.269 81.8981V54.6995L112.424 54.475ZM109.462 81.8981C109.462 82.9647 108.592 83.8349 107.526 83.8349H35.6275C34.5609 83.8349 33.6907 82.9647 33.6907 81.8981V55.7661H54.7423V65.5902H88.4248V55.7661H109.476V81.8981H109.462Z" fill="#01942A"/>
<path d="M61.3381 42.139C60.7907 41.5917 59.9066 41.5917 59.3592 42.139C58.8119 42.6864 58.8119 43.5706 59.3592 44.1179L70.5867 55.3454L71.5832 56.3418L72.5796 55.3454L83.8071 44.1179C84.3544 43.5706 84.3544 42.6864 83.8071 42.139C83.2598 41.5917 82.3756 41.5917 81.8283 42.139L73.0006 50.9667V12.2599C73.0006 11.488 72.3691 10.8564 71.5972 10.8564C70.8253 10.8564 70.1938 11.488 70.1938 12.2599V50.9807L61.3381 42.139Z" fill="#01942A"/>
<path d="M71.4741 86.7737C71.4741 86.7737 71.4741 104.39 71.4741 236.921" stroke="#01942A" stroke-width="2.126" stroke-miterlimit="10" stroke-linecap="round" stroke-linejoin="round" stroke-dasharray="5.67 5.67"/>
<path d="M440.993 86.7737C440.993 86.7737 440.993 104.39 440.993 236.921" stroke="#01942A" stroke-width="2.126" stroke-miterlimit="10" stroke-linecap="round" stroke-linejoin="round" stroke-dasharray="5.67 5.67"/>
<path d="M810.512 81.8989C810.512 81.8989 810.512 100.087 810.512 236.922" stroke="#01942A" stroke-width="2.126" stroke-miterlimit="10" stroke-linecap="round" stroke-linejoin="round" stroke-dasharray="5.67 5.67"/>
</svg>
