<svg width="1557" height="261" viewBox="0 0 1557 261" fill="none" xmlns="http://www.w3.org/2000/svg">
<circle cx="41.4737" cy="248.621" r="11.6998" fill="#01942A"/>
<circle cx="410.993" cy="248.621" r="11.6998" fill="#01942A"/>
<circle cx="780.512" cy="248.621" r="11.6998" fill="#01942A"/>
<circle cx="1150.03" cy="248.621" r="11.1998" stroke="#C4C4C4"/>
<circle cx="1519.55" cy="248.621" r="11.1998" stroke="#C4C4C4"/>
<line x1="47.3242" y1="248.121" x2="399.294" y2="248.121" stroke="#01942A"/>
<line x1="422.693" y1="248.121" x2="768.812" y2="248.121" stroke="#01942A"/>
<line x1="792.212" y1="248.121" x2="1138.33" y2="248.121" stroke="#C4C4C4"/>
<line x1="1161.73" y1="248.121" x2="1507.85" y2="248.121" stroke="#C4C4C4"/>
<path d="M816.489 20.7672C816.392 17.4522 814.637 15.3072 811.614 15.0147C811.517 15.0147 811.517 15.0147 811.419 15.0147L791.725 14.6248H791.53C788.117 14.6248 785.777 15.8922 784.412 17.0622L784.315 17.1597L745.9 55.6716C743.95 57.6216 743.95 60.9365 745.9 62.8865L768.618 85.6037C769.593 86.5786 770.86 87.0661 772.225 87.0661C773.59 87.0661 774.858 86.5786 775.832 85.6037L794.747 66.7864C794.942 66.5914 795.137 66.3965 795.332 66.104L813.759 47.6767C814.929 46.3118 816.977 43.3868 816.879 39.3894L816.489 20.7672ZM811.127 45.1418L792.602 63.6665C792.505 63.764 792.407 63.8615 792.407 63.959C792.31 64.0565 792.31 64.154 792.212 64.2515L773.298 83.0687C772.713 83.6537 771.738 83.6537 771.153 83.0687L748.435 60.3515C747.85 59.7666 747.85 58.7916 748.435 58.2066L786.85 19.7922C787.727 19.1097 789.287 18.2322 791.53 18.2322L811.322 18.6222C812.102 18.7197 812.784 19.1097 812.882 20.8647L813.272 39.4869C813.272 42.2168 811.907 44.2643 811.127 45.1418ZM800.207 24.3746C796.405 24.3746 793.382 27.3971 793.382 31.1995C793.382 35.0019 796.405 38.0244 800.207 38.0244C804.01 38.0244 807.032 35.0019 807.032 31.1995C807.032 27.3971 804.01 24.3746 800.207 24.3746ZM800.207 34.4169C798.452 34.4169 796.99 32.9545 796.99 31.1995C796.99 29.4445 798.452 27.982 800.207 27.982C801.962 27.982 803.425 29.4445 803.425 31.1995C803.425 32.9545 801.962 34.4169 800.207 34.4169ZM787.337 52.1617C788.02 52.8442 788.02 54.0141 787.337 54.6966L772.225 69.8089C771.835 70.1989 771.445 70.2964 770.958 70.2964C770.47 70.2964 770.08 70.1014 769.69 69.8089C769.008 69.1264 769.008 67.9564 769.69 67.2739L784.802 52.1617C785.485 51.4792 786.655 51.4792 787.337 52.1617ZM785.387 41.6318L764.718 62.3015C764.328 62.6915 763.938 62.789 763.45 62.789C762.963 62.789 762.573 62.594 762.183 62.3015C761.5 61.619 761.5 60.449 762.183 59.7666L782.852 39.0969C783.535 38.4144 784.705 38.4144 785.387 39.0969C786.07 39.7794 786.07 40.8518 785.387 41.6318Z" fill="#01942A"/>
<path d="M446.224 29.8983L412.245 13.8093C411.797 13.5968 411.276 13.5968 410.828 13.8093L376.848 29.8983C376.266 30.1739 375.894 30.7635 375.894 31.4108V83.3304C375.894 84.2539 376.639 85.0025 377.558 85.0025H389.203H395.382H411.536H427.691H433.87H445.515C446.434 85.0025 447.178 84.2539 447.178 83.3304V31.4108C447.179 30.7635 446.807 30.1744 446.224 29.8983ZM409.962 52.5275H413.054V55.158H409.962V52.5275ZM408.773 57.5472H414.242C414.899 57.5472 415.43 57.0126 415.43 56.3528V52.528H417.95V65.4218H411.536H405.122V52.5275H407.585V56.3523C407.585 57.0121 408.117 57.5472 408.773 57.5472ZM418.039 68.7655H419.614H421.131V71.396H418.038V68.7655H418.039ZM401.884 68.7655H403.459H404.976V71.396H401.884V68.7655H401.884ZM400.696 73.7847H406.165C406.821 73.7847 407.353 73.2501 407.353 72.5903V68.7655H409.873V81.6583H397.045V68.7655H399.508V72.5903C399.508 73.2501 400.04 73.7847 400.696 73.7847ZM413.2 81.6583V68.7655H415.662V72.5903C415.662 73.2501 416.194 73.7847 416.851 73.7847H422.319C422.976 73.7847 423.508 73.2501 423.508 72.5903V68.7655H426.028V81.6583H413.2ZM429.355 81.6583V67.0934C429.355 66.1699 428.61 65.4213 427.691 65.4213H421.278V50.8554C421.278 49.9319 420.533 49.1833 419.614 49.1833H403.459C402.54 49.1833 401.795 49.9319 401.795 50.8554V65.4213H395.382C394.463 65.4213 393.718 66.1699 393.718 67.0934V81.6583H390.866V46.6623H432.207V81.6583H429.355ZM388.194 43.3181V39.5602H434.878V43.3181H433.87H389.203H388.194ZM443.852 81.6583H435.534V46.6623H436.542C437.461 46.6623 438.206 45.9137 438.206 44.9902V37.8881C438.206 36.9646 437.461 36.216 436.542 36.216H386.531C385.612 36.216 384.867 36.9646 384.867 37.8881V44.9902C384.867 45.9137 385.612 46.6623 386.531 46.6623H387.539V81.6583H379.221V32.4719L411.536 17.1703L443.851 32.4719V81.6583H443.852Z" fill="#01942A"/>
<path d="M405.095 26.6433V30.8532C405.095 31.513 405.627 32.0476 406.283 32.0476H416.602C417.258 32.0476 417.79 31.513 417.79 30.8532V26.6433C417.79 25.9836 417.258 25.449 416.602 25.449H406.283C405.628 25.449 405.095 25.984 405.095 26.6433ZM407.472 27.8377H415.414V29.6588H407.472V27.8377Z" fill="#01942A"/>
<path d="M1111.23 35.2945H1124.78C1125.95 35.2945 1126.92 34.417 1126.92 33.3445C1126.92 32.272 1125.95 31.3945 1124.78 31.3945H1111.23C1110.06 31.3945 1109.08 32.272 1109.08 33.3445C1109.08 34.417 1110.06 35.2945 1111.23 35.2945Z" fill="#C4C4C4"/>
<path d="M1126.92 60.2542C1126.92 59.1817 1125.95 58.3042 1124.78 58.3042H1111.23C1110.06 58.3042 1109.08 59.1817 1109.08 60.2542C1109.08 61.3267 1110.06 62.2041 1111.23 62.2041H1124.78C1125.95 62.2041 1126.92 61.3267 1126.92 60.2542Z" fill="#C4C4C4"/>
<path d="M1126.92 46.7993C1126.92 45.7269 1125.95 44.8494 1124.78 44.8494H1111.23C1110.06 44.8494 1109.08 45.7269 1109.08 46.7993C1109.08 47.8718 1110.06 48.7493 1111.23 48.7493H1124.78C1125.95 48.7493 1126.92 47.8718 1126.92 46.7993Z" fill="#C4C4C4"/>
<path d="M1194.78 25.8371L1194.69 25.6422C1194.69 25.5447 1194.59 25.4472 1194.49 25.3497C1194.49 25.2522 1194.39 25.2522 1194.39 25.1547C1194.3 25.0572 1194.3 24.9597 1194.2 24.8622L1194 24.7647L1193.91 24.6672L1193.71 24.5697L1193.61 24.4722L1164.36 11.7974C1163.88 11.6024 1163.29 11.6024 1162.8 11.7974L1133.55 24.4722L1133.46 24.5697L1133.26 24.6672L1133.16 24.7647C1133.07 24.7647 1133.07 24.8622 1132.97 24.8622C1132.87 24.9597 1132.77 24.9597 1132.77 25.0572C1132.77 25.0572 1132.68 25.1547 1132.68 25.2522C1132.58 25.3497 1132.58 25.4472 1132.58 25.5447C1132.58 25.5447 1132.58 25.6422 1132.48 25.7397C1132.48 25.9346 1132.38 26.1296 1132.38 26.2271L1132.29 67.1765C1132.29 67.3715 1132.29 67.469 1132.38 67.664V67.7615C1132.48 67.859 1132.48 68.054 1132.58 68.1515C1132.68 68.249 1132.77 68.444 1132.87 68.5415L1132.97 68.639C1133.07 68.7365 1133.26 68.834 1133.36 68.9315L1162.61 81.6063C1162.8 81.7038 1163.1 81.8013 1163.29 81.8013H1163.68C1163.97 81.8013 1164.17 81.7038 1164.46 81.6063L1193.71 68.9315C1193.91 68.834 1194 68.7365 1194.1 68.639L1194.2 68.5415C1194.3 68.444 1194.49 68.3465 1194.49 68.1515C1194.59 68.054 1194.69 67.859 1194.69 67.7615V67.664C1194.78 67.469 1194.78 67.3715 1194.78 67.1765V26.3246C1194.88 26.1296 1194.88 25.9346 1194.78 25.8371ZM1161.73 77.0238L1136.28 66.0065V29.3471L1148.08 34.417V46.5068C1148.08 47.6768 1148.96 48.6518 1150.03 48.6518C1151.1 48.6518 1151.98 47.6768 1151.98 46.5068V36.172L1161.73 40.4619V77.0238ZM1163.39 36.952L1153.25 32.467L1163.19 28.1771C1164.27 27.6896 1164.75 26.5196 1164.36 25.5447C1163.97 24.5697 1162.71 24.0822 1161.63 24.5697L1149.15 29.9321C1148.86 30.0296 1148.67 30.2246 1148.47 30.4196L1139.21 26.3246L1163.68 15.7948L1187.96 26.3246L1163.39 36.952ZM1190.98 66.0065L1182.21 69.809V58.0116C1182.21 56.8417 1181.33 55.8667 1180.26 55.8667C1179.18 55.8667 1178.31 56.8417 1178.31 58.0116V71.5639L1165.63 77.0238V40.1694L1190.98 29.2496V66.0065Z" fill="#C4C4C4"/>
<path d="M1496.28 45.2515C1496.63 45.7629 1497.19 46.0851 1497.81 46.122C1497.85 46.1243 1497.89 46.1254 1497.93 46.1254C1498.51 46.1254 1499.06 45.8781 1499.44 45.4429L1514.35 28.4001C1515.08 27.5688 1514.99 26.3056 1514.16 25.5794C1513.33 24.8533 1512.07 24.9361 1511.34 25.7674L1498.13 40.8644L1494.26 35.1861C1493.64 34.2731 1492.4 34.037 1491.49 34.658C1490.57 35.279 1490.34 36.5232 1490.96 37.4362L1496.28 45.2515Z" fill="#C4C4C4"/>
<path d="M1460.11 35.4065L1467.89 35.4624V42.3502L1461.9 42.3547C1460.79 42.3547 1459.9 43.2509 1459.9 44.3553C1459.9 45.4585 1460.8 46.3525 1461.9 46.3525C1461.9 46.3525 1461.9 46.3525 1461.9 46.3525L1467.89 46.3491V63.4165C1467.89 64.5208 1468.79 65.4159 1469.89 65.4159H1480.5C1481 69.6956 1484.65 73.0276 1489.06 73.0276C1493.47 73.0276 1497.12 69.6956 1497.62 65.4159H1524.43H1531.18C1532.08 69.2033 1535.5 72.0296 1539.56 72.0296C1543.62 72.0296 1547.03 69.2044 1547.93 65.4159H1554.68C1555.78 65.4159 1556.68 64.5208 1556.68 63.4165V43.7108C1556.68 43.6851 1556.68 43.6593 1556.68 43.6325C1556.68 43.609 1556.68 43.5877 1556.68 43.5642V43.0585C1556.68 42.8045 1556.63 42.5539 1556.54 42.3189L1551.67 30.0862C1551.37 29.3265 1550.63 28.8275 1549.81 28.8275H1549.26H1547.01V23.1246C1547.01 22.1556 1546.31 21.3265 1545.36 21.1565L1526.44 17.7864V15.6493C1526.44 14.545 1525.54 13.6499 1524.44 13.6499H1469.89C1468.79 13.6499 1467.89 14.545 1467.89 15.6493V31.4647L1460.14 31.4087C1460.14 31.4087 1460.13 31.4087 1460.13 31.4087C1459.03 31.4087 1458.13 32.2949 1458.13 33.3936C1458.12 34.4968 1459.01 35.3986 1460.11 35.4065ZM1489.06 69.0287C1486.52 69.0287 1484.44 66.9555 1484.44 64.4089C1484.44 64.165 1484.46 63.9255 1484.5 63.6928C1484.52 63.5765 1484.54 63.4601 1484.57 63.346C1484.57 63.3236 1484.58 63.3023 1484.58 63.28C1484.61 63.1614 1484.65 63.045 1484.69 62.9309C1484.69 62.9152 1484.7 62.8995 1484.7 62.8839C1484.75 62.7619 1484.79 62.6422 1484.85 62.5247C1484.85 62.5225 1484.85 62.5202 1484.85 62.518C1485.52 61.0277 1486.97 59.967 1488.63 59.8092C1488.64 59.8092 1488.65 59.8081 1488.66 59.8081C1488.79 59.7958 1488.93 59.7891 1489.06 59.7891C1489.2 59.7891 1489.33 59.7958 1489.46 59.8081C1489.47 59.8081 1489.48 59.8092 1489.49 59.8092C1491.15 59.967 1492.6 61.0277 1493.27 62.518C1493.28 62.5191 1493.28 62.5214 1493.28 62.5247C1493.33 62.6411 1493.38 62.7619 1493.42 62.8839C1493.43 62.9007 1493.43 62.9152 1493.44 62.9309C1493.48 63.045 1493.51 63.1614 1493.54 63.28C1493.55 63.3023 1493.55 63.3236 1493.56 63.346C1493.58 63.4601 1493.61 63.5753 1493.63 63.6928C1493.66 63.9255 1493.68 64.165 1493.68 64.4089C1493.68 66.9555 1491.61 69.0287 1489.06 69.0287ZM1539.56 68.0296C1537.01 68.0296 1534.94 65.9597 1534.94 63.4153C1534.94 60.8677 1537.01 58.7955 1539.56 58.7955C1542.11 58.7955 1544.18 60.8677 1544.18 63.4153C1544.18 65.9597 1542.11 68.0296 1539.56 68.0296ZM1547.94 61.417C1547.93 61.3879 1547.92 61.3588 1547.92 61.3286C1547.9 61.2805 1547.89 61.2324 1547.88 61.1843C1547.86 61.1026 1547.83 61.0209 1547.81 60.9393C1547.79 60.8923 1547.78 60.8453 1547.76 60.7983C1547.74 60.7133 1547.71 60.6304 1547.68 60.5465C1547.66 60.5051 1547.65 60.4626 1547.63 60.4223C1547.6 60.3205 1547.56 60.2198 1547.52 60.1202C1547.51 60.099 1547.5 60.0777 1547.49 60.0565C1547.44 59.9345 1547.39 59.8148 1547.33 59.6973C1547.31 59.6682 1547.3 59.6402 1547.28 59.61C1547.24 59.5216 1547.2 59.4355 1547.15 59.3482C1547.13 59.3079 1547.11 59.2688 1547.08 59.2285C1547.04 59.1547 1547 59.0808 1546.96 59.007C1546.93 58.9656 1546.91 58.923 1546.88 58.8816C1546.84 58.8112 1546.79 58.7418 1546.75 58.6724C1546.72 58.6321 1546.69 58.5919 1546.66 58.5527C1546.62 58.4811 1546.57 58.4106 1546.51 58.3401C1546.49 58.3065 1546.46 58.2707 1546.44 58.2372C1546.37 58.1499 1546.3 58.0637 1546.24 57.9787C1546.22 57.963 1546.21 57.9474 1546.2 57.9328C1546.12 57.8333 1546.03 57.7359 1545.94 57.6386C1545.92 57.6128 1545.9 57.5882 1545.87 57.5625C1545.81 57.4931 1545.74 57.4249 1545.68 57.3577C1545.64 57.3253 1545.61 57.2928 1545.58 57.2604C1545.52 57.2022 1545.46 57.144 1545.4 57.0881C1545.36 57.0545 1545.32 57.021 1545.29 56.9885C1545.23 56.9337 1545.16 56.88 1545.1 56.8274C1545.06 56.7961 1545.03 56.7647 1544.99 56.7334C1544.92 56.6786 1544.85 56.626 1544.79 56.5723C1544.75 56.5465 1544.72 56.5197 1544.68 56.494C1544.59 56.4257 1544.5 56.3597 1544.4 56.2959C1544.39 56.287 1544.38 56.278 1544.37 56.2702C1544.26 56.1986 1544.15 56.1281 1544.04 56.0598C1544.01 56.0397 1543.97 56.0207 1543.94 56.0005C1543.86 55.9535 1543.78 55.9077 1543.7 55.8629C1543.66 55.8405 1543.62 55.817 1543.58 55.7958C1543.5 55.7566 1543.43 55.7186 1543.36 55.6817C1543.31 55.6593 1543.26 55.6369 1543.22 55.6156C1543.14 55.581 1543.07 55.5463 1542.99 55.5138C1542.95 55.4937 1542.9 55.4747 1542.86 55.4556C1542.78 55.421 1542.69 55.3885 1542.61 55.3583C1542.57 55.3426 1542.53 55.327 1542.49 55.3113C1542.38 55.2699 1542.26 55.2308 1542.14 55.1938C1542.13 55.1905 1542.13 55.1882 1542.12 55.1849C1541.99 55.1457 1541.86 55.1099 1541.73 55.0763C1541.69 55.0663 1541.65 55.0573 1541.61 55.0484C1541.52 55.026 1541.44 55.0047 1541.34 54.9857C1541.3 54.9756 1541.25 54.9656 1541.2 54.9566C1541.11 54.941 1541.03 54.9253 1540.95 54.9119C1540.89 54.9029 1540.84 54.8951 1540.79 54.8884C1540.71 54.8761 1540.62 54.8649 1540.54 54.8559C1540.49 54.8503 1540.43 54.8436 1540.38 54.8391C1540.29 54.8302 1540.2 54.8235 1540.1 54.8179C1540.06 54.8156 1540.02 54.8112 1539.97 54.8089C1539.84 54.8022 1539.7 54.7989 1539.56 54.7989C1539.42 54.7989 1539.28 54.8022 1539.14 54.8089C1539.1 54.8112 1539.06 54.8145 1539.01 54.8179C1538.92 54.8235 1538.83 54.8302 1538.74 54.8391C1538.68 54.8436 1538.63 54.8503 1538.58 54.8559C1538.5 54.8649 1538.41 54.8761 1538.33 54.8884C1538.27 54.8951 1538.22 54.9029 1538.17 54.9119C1538.09 54.9253 1538 54.941 1537.92 54.9577C1537.87 54.9667 1537.82 54.9768 1537.77 54.9868C1537.68 55.0059 1537.59 55.0271 1537.5 55.0495C1537.46 55.0584 1537.42 55.0685 1537.38 55.0775C1537.26 55.111 1537.13 55.1468 1537 55.186C1536.99 55.1882 1536.98 55.1916 1536.98 55.1949C1536.86 55.2319 1536.74 55.271 1536.63 55.3135C1536.59 55.3281 1536.55 55.3438 1536.51 55.3594C1536.42 55.3907 1536.34 55.4232 1536.26 55.4579C1536.21 55.4769 1536.17 55.497 1536.13 55.5161C1536.05 55.5496 1535.97 55.5843 1535.9 55.6179C1535.85 55.6403 1535.81 55.6615 1535.76 55.6839C1535.69 55.7197 1535.61 55.7589 1535.54 55.798C1535.5 55.8204 1535.46 55.8428 1535.41 55.8652C1535.33 55.9099 1535.25 55.9569 1535.18 56.0028C1535.14 56.0218 1535.11 56.0419 1535.08 56.061C1534.97 56.1281 1534.86 56.1986 1534.75 56.2713C1534.74 56.2791 1534.73 56.2892 1534.71 56.297C1534.62 56.3619 1534.53 56.4279 1534.43 56.4962C1534.4 56.5208 1534.37 56.5477 1534.33 56.5734C1534.26 56.6271 1534.19 56.6797 1534.13 56.7356C1534.09 56.7658 1534.05 56.7972 1534.01 56.8285C1533.95 56.8811 1533.89 56.9348 1533.83 56.9907C1533.79 57.0232 1533.76 57.0568 1533.72 57.0892C1533.66 57.1463 1533.6 57.2044 1533.54 57.2626C1533.5 57.2951 1533.47 57.3275 1533.44 57.36C1533.37 57.4271 1533.31 57.4954 1533.24 57.5647C1533.22 57.5905 1533.19 57.6162 1533.17 57.6419C1533.08 57.7382 1533 57.8355 1532.92 57.9362C1532.9 57.9507 1532.89 57.9664 1532.88 57.9821C1532.81 58.0671 1532.74 58.1533 1532.68 58.2416C1532.65 58.2752 1532.63 58.311 1532.6 58.3457C1532.55 58.4162 1532.5 58.4856 1532.45 58.5572C1532.42 58.5975 1532.4 58.6377 1532.37 58.678C1532.32 58.7474 1532.28 58.8167 1532.23 58.8861C1532.21 58.9286 1532.18 58.97 1532.16 59.0114C1532.12 59.0842 1532.07 59.158 1532.03 59.2319C1532.01 59.2721 1531.99 59.3113 1531.97 59.3527C1531.92 59.4377 1531.88 59.525 1531.83 59.6123C1531.82 59.6414 1531.8 59.6716 1531.79 59.7007C1531.73 59.8181 1531.68 59.9379 1531.62 60.0587C1531.61 60.0822 1531.61 60.1057 1531.6 60.1292C1531.56 60.2265 1531.52 60.325 1531.48 60.4246C1531.46 60.4671 1531.45 60.5096 1531.43 60.5521C1531.41 60.6338 1531.38 60.7166 1531.35 60.7994C1531.33 60.8475 1531.32 60.8956 1531.3 60.9426C1531.28 61.0232 1531.26 61.1037 1531.24 61.1843C1531.22 61.2335 1531.21 61.2816 1531.2 61.332C1531.19 61.3611 1531.18 61.3902 1531.17 61.4193H1526.43V32.8252H1534.89V43.6336C1534.89 44.7379 1535.78 45.633 1536.89 45.633H1552.68V61.417H1547.94ZM1551.67 41.6341H1538.89V32.8252H1545.01H1547.94L1551.67 41.6341ZM1543.01 24.7984V28.8275H1536.89H1526.44V21.8468L1543.01 24.7984ZM1471.89 17.6477H1522.44V19.4602V30.8269V61.417H1497.14C1496.05 58.4587 1493.37 56.2646 1490.14 55.8607C1490.11 55.8562 1490.07 55.8528 1490.04 55.8484C1489.97 55.8405 1489.9 55.8338 1489.83 55.8271C1489.76 55.8204 1489.68 55.8148 1489.61 55.8103C1489.56 55.807 1489.51 55.8036 1489.46 55.8014C1489.33 55.7958 1489.19 55.7913 1489.06 55.7913C1488.93 55.7913 1488.8 55.7958 1488.67 55.8014C1488.62 55.8036 1488.57 55.807 1488.51 55.8103C1488.44 55.8148 1488.37 55.8204 1488.3 55.8271C1488.23 55.8327 1488.16 55.8405 1488.08 55.8484C1488.05 55.8517 1488.02 55.8562 1487.99 55.8607C1484.76 56.2646 1482.08 58.4598 1480.98 61.417H1471.89V46.3446L1483.84 46.3357C1484.95 46.3346 1485.84 45.4394 1485.84 44.3351C1485.84 43.2308 1484.94 42.3368 1483.84 42.3368C1483.84 42.3368 1483.84 42.3368 1483.84 42.3368L1471.89 42.3458V35.4915L1479.65 35.5475C1479.66 35.5475 1479.66 35.5475 1479.67 35.5475C1480.76 35.5475 1481.66 34.6613 1481.66 33.5626C1481.67 32.4582 1480.78 31.5564 1479.68 31.5486L1471.89 31.4926V17.6477H1471.89Z" fill="#C4C4C4"/>
<path d="M82.4235 54.475L82.2551 54.0399L82.199 52.9593H81.5955L67.5752 31.9077H51.3936V34.7146H66.0735L78.2553 52.9593H55.6039V62.7833H27.5351V52.9593H4.88366L17.0655 34.7146H31.7454V31.9077H15.5638L1.47331 53.0014L0.869836 53.0294V54.1662L0.729492 54.5171L0.869836 54.7136V81.8841C0.869836 84.5085 3.00306 86.6417 5.62749 86.6417H77.5256C80.15 86.6417 82.2692 84.5085 82.2692 81.8981V54.6995L82.4235 54.475ZM79.4623 81.8981C79.4623 82.9647 78.5922 83.8349 77.5256 83.8349H5.62749C4.56087 83.8349 3.69074 82.9647 3.69074 81.8981V55.7661H24.7423V65.5902H58.4248V55.7661H79.4763V81.8981H79.4623Z" fill="#01942A"/>
<path d="M31.3381 42.139C30.7907 41.5917 29.9066 41.5917 29.3592 42.139C28.8119 42.6864 28.8119 43.5706 29.3592 44.1179L40.5867 55.3454L41.5832 56.3418L42.5796 55.3454L53.8071 44.1179C54.3544 43.5706 54.3544 42.6864 53.8071 42.139C53.2598 41.5917 52.3756 41.5917 51.8283 42.139L43.0006 50.9667V12.2599C43.0006 11.488 42.3691 10.8564 41.5972 10.8564C40.8253 10.8564 40.1938 11.488 40.1938 12.2599V50.9807L31.3381 42.139Z" fill="#01942A"/>
<path d="M41.4741 86.7737C41.4741 86.7737 41.4741 104.39 41.4741 236.921" stroke="#01942A" stroke-width="2.126" stroke-miterlimit="10" stroke-linecap="round" stroke-linejoin="round" stroke-dasharray="5.67 5.67"/>
<path d="M410.993 86.7737C410.993 86.7737 410.993 104.39 410.993 236.921" stroke="#01942A" stroke-width="2.126" stroke-miterlimit="10" stroke-linecap="round" stroke-linejoin="round" stroke-dasharray="5.67 5.67"/>
<path d="M780.512 81.8989C780.512 81.8989 780.512 100.087 780.512 236.922" stroke="#01942A" stroke-width="2.126" stroke-miterlimit="10" stroke-linecap="round" stroke-linejoin="round" stroke-dasharray="5.67 5.67"/>
</svg>
