<svg width="137" height="34" viewBox="0 0 137 34" fill="none" xmlns="http://www.w3.org/2000/svg">
<g clip-path="url(#clip0)">
<path fill-rule="evenodd" clip-rule="evenodd" d="M12.7664 8.36133H22.0628C27.0542 8.36133 28.9332 10.917 28.6428 14.6717C28.1629 20.8705 24.4577 24.3 19.5431 24.3H17.0618C16.3875 24.3 15.934 24.7514 15.7516 25.9746L14.6981 33.086C14.6285 33.5471 14.3886 33.8141 14.0286 33.8505H8.18771C7.63818 33.8505 7.4438 33.4258 7.58778 32.5059L11.149 9.70836C11.2881 8.79578 11.7825 8.36133 12.7664 8.36133Z" fill="#C4C4C4" fill-opacity="0.5"/>
<path fill-rule="evenodd" clip-rule="evenodd" d="M53.1272 7.93896C56.2636 7.93896 59.1577 9.65977 58.7617 13.9484C58.2818 19.0453 55.5821 21.8655 51.3226 21.8777H47.6007C47.0656 21.8777 46.8064 22.3194 46.6672 23.2247L45.9473 27.8531C45.8393 28.5521 45.4841 28.8968 44.961 28.8968H41.4982C40.9463 28.8968 40.7543 28.54 40.8767 27.7415L43.7348 9.19134C43.8763 8.27876 44.2147 7.93896 44.8314 7.93896H53.12H53.1272ZM47.4879 17.8706H50.3076C52.0713 17.8026 53.2424 16.5672 53.36 14.3392C53.432 12.963 52.5129 11.9776 51.0515 11.9849L48.3974 11.997L47.4879 17.8706ZM68.1758 27.4769C68.4925 27.1857 68.8141 27.0352 68.7685 27.3944L68.6557 28.2536C68.5981 28.7026 68.7733 28.9405 69.186 28.9405H72.2625C72.7808 28.9405 73.0328 28.7293 73.16 27.9187L75.0557 15.8852C75.1517 15.2809 75.0053 14.9848 74.5518 14.9848H71.1682C70.8634 14.9848 70.7147 15.1571 70.6355 15.6279L70.5107 16.3682C70.4459 16.7541 70.2707 16.8221 70.1075 16.4337C69.534 15.06 68.0702 14.4435 66.028 14.4921C61.2838 14.5916 58.085 18.2346 57.7418 22.9043C57.4779 26.5158 60.036 29.3531 63.41 29.3531C65.8577 29.3531 66.9519 28.625 68.1854 27.4842L68.1758 27.4769ZM65.5985 25.6251C63.5563 25.6251 62.1333 23.9771 62.4285 21.9578C62.7236 19.9384 64.6338 18.2905 66.676 18.2905C68.7181 18.2905 70.1411 19.9384 69.846 21.9578C69.5508 23.9771 67.643 25.6251 65.5985 25.6251ZM81.0766 14.9459H77.957C77.3139 14.9459 77.0523 15.4314 77.2563 16.0284L81.1294 27.4988L77.3307 32.9573C77.0115 33.4136 77.2587 33.8286 77.7074 33.8286H81.2134C81.4177 33.8525 81.6245 33.8165 81.8092 33.7248C81.9938 33.6332 82.1485 33.4897 82.2548 33.3116L94.167 16.0308C94.5341 15.4993 94.3614 14.9411 93.759 14.9411H90.4402C89.8715 14.9411 89.6435 15.1692 89.3172 15.6474L84.3498 22.9286L82.1301 15.6304C82.0005 15.1887 81.6765 14.9459 81.079 14.9459H81.0766Z" fill="#A8AAAE" fill-opacity="0.5"/>
<path fill-rule="evenodd" clip-rule="evenodd" d="M106.559 7.93894C109.695 7.93894 112.589 9.65974 112.193 13.9484C111.713 19.0453 109.014 21.8655 104.754 21.8776H101.035C100.5 21.8776 100.24 22.3194 100.101 23.2247L99.3814 27.8531C99.2734 28.5521 98.9182 28.8968 98.3951 28.8968H94.9323C94.3804 28.8968 94.1884 28.54 94.3108 27.7415L97.1736 9.18646C97.3152 8.27387 97.6536 7.93408 98.2703 7.93408H106.559V7.93894ZM100.92 17.8705H103.739C105.503 17.8026 106.674 16.5672 106.792 14.3391C106.864 12.963 105.945 11.9776 104.483 11.9849L101.829 11.997L100.92 17.8705ZM121.607 27.4769C121.924 27.1857 122.246 27.0352 122.2 27.3944L122.087 28.2536C122.03 28.7026 122.205 28.9404 122.618 28.9404H125.694C126.212 28.9404 126.464 28.7293 126.592 27.9186L128.487 15.8852C128.583 15.2808 128.437 14.9847 127.983 14.9847H124.605C124.3 14.9847 124.151 15.1571 124.072 15.6279L123.947 16.3682C123.882 16.7541 123.707 16.822 123.544 16.4337C122.97 15.06 121.507 14.4435 119.465 14.4921C114.72 14.5916 111.521 18.2346 111.178 22.9043C110.914 26.5158 113.472 29.353 116.846 29.353C119.294 29.353 120.388 28.6249 121.622 27.4842L121.607 27.4769ZM119.033 25.6251C116.99 25.6251 115.567 23.9771 115.863 21.9577C116.158 19.9384 118.068 18.2904 120.11 18.2904C122.152 18.2904 123.575 19.9384 123.28 21.9577C122.985 23.9771 121.075 25.6251 119.033 25.6251ZM133.222 28.9599H129.67C129.609 28.9627 129.547 28.9516 129.49 28.9275C129.433 28.9035 129.382 28.8669 129.34 28.8206C129.299 28.7742 129.268 28.7191 129.25 28.6593C129.232 28.5995 129.227 28.5363 129.236 28.4744L132.356 8.48503C132.386 8.34861 132.46 8.22639 132.567 8.13826C132.674 8.05013 132.808 8.00126 132.946 7.99962H136.498C136.559 7.99682 136.621 8.00786 136.678 8.03194C136.735 8.05602 136.786 8.09255 136.828 8.13893C136.869 8.1853 136.9 8.24037 136.918 8.3002C136.936 8.36002 136.941 8.42314 136.932 8.48503L133.812 28.4744C133.784 28.6118 133.709 28.7351 133.602 28.8242C133.495 28.9133 133.361 28.9628 133.222 28.9647V28.9599Z" fill="#C4C4C4" fill-opacity="0.5"/>
<path fill-rule="evenodd" clip-rule="evenodd" d="M6.95294 0.514648H16.259C18.8795 0.514648 21.9895 0.599596 24.0677 2.45631C25.4571 3.69655 26.1866 5.66976 26.0186 7.79588C25.4475 14.9825 21.1976 19.009 15.4959 19.009H10.9077C10.1254 19.009 9.60942 19.5332 9.38864 20.9506L8.1072 29.2027C8.02321 29.7367 7.79524 30.0522 7.38729 30.091H1.64479C1.00887 30.091 0.783293 29.6056 0.948873 28.5328L5.07637 2.08254C5.24195 1.01948 5.82028 0.514648 6.95294 0.514648Z" fill="#A8AAAE" fill-opacity="0.5"/>
<path fill-rule="evenodd" clip-rule="evenodd" d="M9.52197 20.1132L11.1466 9.70835C11.2882 8.79577 11.7825 8.35889 12.7664 8.35889H22.0628C23.6011 8.35889 24.8465 8.6016 25.8208 9.05061C24.8873 15.4484 20.7958 19.0016 15.4397 19.0016H10.8586C10.2443 19.0041 9.79314 19.3147 9.52197 20.1132Z" fill="#6B6B6A" fill-opacity="0.5"/>
</g>
<defs>
<clipPath id="clip0">
<rect x="0.89502" y="0.514648" width="136.047" height="33.3359" fill="white"/>
</clipPath>
</defs>
</svg>
